<svg height="144" viewBox="0 0 256 109.7" width="3.6in" xmlns="http://www.w3.org/2000/svg"><path d="m103 17c-16.1 32.7.1 77.7 5.7 88a.2.2 0 0 0 .4-.1c-3.2-17-3.6-54.3-.8-60.5a.8.8 0 0 1 1.4 0c3.3 7 25.6 52.7 43.4 33.8a.1.1 0 0 1 .1-.1c20.2-29.2 22.1-66.1 17.7-70.8h-.1c-6.7-5.4-8.1 4.6-5.7 10.5a9 9 0 0 1 .6 4.9c-2.1 12-10.7 34-18.9 45.1a5.5 5.5 0 0 1 -8.3.6c-23-24-20-42.7-25-51.6a5.9 5.9 0 0 0 -10.5.2zm110.2 55.7c16.1-.4 16.2-22 25.3-15.5 11.7 6.6 0 19.7-19.2 22.8-46.3 9.5-52.9-48-20-67.5l.5-.3c10.9-5.4 17 5.6 7.8 9.8a5.4 5.4 0 0 1 -2.1.5c-22.2 1.4-33.4 51.3 7.7 50.2z"/><circle cx="212.3" cy="44" r="4.6"/><path d="m79.9 60c-.2.3.2.3.3.3s-.4-.3-.3-.3zm.2-5.8.1.1-.2-.9zm.4-5.3c-.6.5 0 1.9-.2 2.8l-.2.2.5.5a21.6 21.6 0 0 1 -.1-3.5zm1.1-3c-.2.2-.2-.6 0 .7h.1a1.8 1.8 0 0 0 -.1-.7z"/><path d="m81.7 46.5c0 .6.1-.4 0 0zm-.4-2.6.3.7c.1-.2.1-.9.2-.6s-.3-.6-.5-.1zm-.5-.7v.4c.1-.1.2-.2 0-.4zm.4 1.2-.3-.8c-.1.1-.3.1.1.4s0 0 .2.4zm0 .5c-.1.4-.2.9-.4.2.1 1.4.5 1.2.4-.2zm-1.3 3.7-.2.6v.4c.1-.2.3-1 .2-1zm.8-9.5c-.1 0-.2.4-.4.5l.3.5c0-.3-.1-.9.1-1zm-.4.5-.4-.8c.1.7.3.8.4.8zm-.2 3.6.6 1.3-.7-1.6zm-.3-7.2.5.4-.7-.7zm-.7-2c.3.3.2-.6.5-.3a4.3 4.3 0 0 0 -1.1-1.2 2.6 2.6 0 0 1 .6 1.5zm-1.2-2.1.6.6c-.1-.3-.3-.4-.6-.6zm1.7 5.5c.1-.1.2-.3.1-.7l-.2.4c0 .1.1.2.1.3z"/><path d="m79.5 37.1a4.1 4.1 0 0 1 -.2-.7zm.6 3.9c-.4-.4-.8-1.4-.9-.4s.4-.2.9.4zm-.8-3v.9c.1-.1.2-.3.4 0zm-.2-.4.2.4-.1-.3zm-.8-4.2a3 3 0 0 1 -.7-1.1 8.8 8.8 0 0 0 .5 1.5c.1 0 .4.1.2-.4zm.6 1.8h-.1zm-3.6-7v.1h.1zm2.8 5.7a1.6 1.6 0 0 0 .4.7 5.9 5.9 0 0 0 -.4-.8c-.1 0-.1 0 0 .1zm-.9-3.1c0 .2.1.4.1.7s0-.7-.1-.7zm1.7 4.2-.4-.4.3.5a.1.1 0 0 1 .1-.1zm-6.3-6.6c.4-.2 1.2.4 1.3 1.4s1.3-.5 1.4-1.5-.2.2-.8-.5.6 1.9-.1 1.4-.3-.8-.5-1.4-1.3-.8-1.7-.2l.8.6c-.1.1-.4-.1-.4.2zm3.5 1.4.3.3a4.2 4.2 0 0 1 -.3-1.3c-.4-.5-.6-.5-.7-.5l.9 1.6z"/><path d="m77.1 31.5c-.4-.1-.9-.8-1.1-.1s.6.5 1 1c-.8-1.5.4.3.1-.9a5.6 5.6 0 0 0 .5.8l-.3-.8h-.2c-.1-.5.1-.1.2 0l-.9-1.4c.1.3.4.7.7 1.4zm1.1 8.5h.1c-.1-.2-.1-.2-.1 0zm.1-.7a.7.7 0 0 1 .3.5c0 .4-.2.1-.3.1s.5.7.5 0h-.1a3.2 3.2 0 0 1 .2-1.5 2.9 2.9 0 0 0 -.6.9zm-.5-3.9-.6-1.2c0 .2-.1.5-.1.7h.2c.2.7.3.4.5.5zm-2.4-7.4h.4l-.9-.5zm-1.1-1.5.3-.2-.4-.2zm-61.6 36 .2.4c-.1-.2-.2-.3-.2-.4zm20.7-47.4c-.7 0-1.5-.2-1.3.1l.4.3a1.8 1.8 0 0 1 .9-.4zm-19.7 22.2h.2c-.1-.2-.1-.4-.2-.6zm1.3 1-.5.5zm4.2 37.3h.5c-.3-.5-.3-.1-.5 0zm40.2-60.7-1.1-.7c.5.4.9.9 1.1.7zm-50.8 47.3q.2.4.3.3t-.3-.3zm48.2-48.5.3.2 1.2.3a2 2 0 0 0 -1.5-.5zm21 51.1-.3.7a1.5 1.5 0 0 0 .3-.7zm-8.4-44c.3.2.1 0 0 0zm.4.5-.3-.4c0 .1.1.2.3.4zm0-.2.3.3zm-.8-.7.5.5h-.1zm-29 67.5h.1c.3-.1.2-.1-.1 0zm-13.1-64.6v-.1zm-.8 1c.1-.8.4-.9.8-1l-1-.6c.1.5.1 1 .2 1.6z"/><path d="m14.8 68.7c0-.4-.1-.7-.1-1s1.1 1.5 1.2.6-1.3-3.1-2.4-2.8v-.6l.2.3c.2-1.2-1-.6-1.3-2.1s.1-.9.3-.6a4.7 4.7 0 0 1 -.5-1c-.1-.4.2-.3.2 0l-.4-1.7h.1a3.9 3.9 0 0 1 -.8-1c.1-.5.2.2.3.1a10.4 10.4 0 0 1 -.4-1c.3-.4.6.4.7 1.1 1-1-.4-.8.2-2.8l.2.9c.6-.6.3-1.3.7-2.3s-.9 2-1.3 1a1.7 1.7 0 0 0 -.1-1.2c.4 0 .3-.6.3-1.3h.5c-.1-.8-.4-.7-.6-1.2s.5-.9.9-1.1-.8.9-.7-.7a8.8 8.8 0 0 0 .2-3.3c.3-.7.3.2.5 0l-.3-.8h.2c0-.6-.5-.2-.4-1.1s1.3-1.6 1-2.9.3.2.5.2a26.1 26.1 0 0 0 0-2.8l.8-.9c-.7.6-.8-.5-.8-1.5l-.7.4c.2-.5.2-1 .4-1.5s.2.1.3.4v-.3c.5-.3.6 0 .7.5l-.5.4c.2.4.4.9.7 1v-.5c.1.1.1.2.2.1s0-.2 0-.4h.7l-.2-.2 1.2-1.4a11.1 11.1 0 0 1 1-5c.1.7.5.5.9.9s-.7 1.5-1.4 2.3.5-.2.5 0l.7-1.9c.3.3.5-.2.9-.5s.5-1.5.8-2.3.3.5-.4 1.2c1.2-.5.1-1.7 1.2-2.2s-.2.2-.2.4 1.3-1.5 1.3-1.1l-.2.2c1.1-1.1 3.4-3.4 3.2-4.1a3 3 0 0 1 .4 1c.2-1.2.5-2.5.8-3.7.2.7 1.8 1.3.9 2.3a2.9 2.9 0 0 0 1.4-.9c-.3 0-1.1-.4-.8-.7a18.3 18.3 0 0 0 2.1-.2c-.4.1-.6-1 0-1.3s.5.8.4 1l.8-1.6c-.3.4.3.8.8.8s1.1-.5 1.4-.8h-.6c1.6-.6.9-2 2.6-2.6-.1.3 0 1.3.8 1.1s.9-2.9 2.4-3.6l.4.2 1.1-.6c-.6.9-2.3 2.8-3 3.8s.2.3 1.1 0-.4.5-.6.6l2.1-.4c-.2-.6 1.5-1 1.3-1.4l-2.2 1.1c-.2-.5 1-1.9 2.6-2.2s-.1 1.1 0 1.3 1.4-.6 1.5-.5l-.6.4c.9.1 1.3-1 2.4-.6s1.2.7 1.2.4a3.7 3.7 0 0 1 -.5-3.2c.1.1 2.1.6 2.5.9s-.9 1.2-.4 1.7.3-.4.5-.5-.2.5.6.5 1.7.2.5-.5c.8-.1.8.2 1.8.3s1-1.2 1.9-1.2.1.4.2.5a23.4 23.4 0 0 1 4 1.3c.1.2.8.6.4.7s.5-.2 1 0-1-.3-.6.5 1.3.1 2.1.2-1.5-.7-2.2-.7 1.6-.9 3.4-.5.3.6.6.6c2.2 1.4 2.6-.1 4.2 1.7s-.5.7-.6 1.1-1.2-1.2-1.9-1.5l.7.6a3.5 3.5 0 0 1 -1.4-.6c.5.6 3.7 2.3 4.9 3.9.3.1.9.4.8.1l-.5-.4c-.2-.7 1.2.4.7-.2a4.5 4.5 0 0 1 2.5 1.7l-.2.6c.1-.2-.3-.8-.7-1s.7 1.8 1.6 1.8l-.3-.9c.8.5 2 1 2.4 2 .2-.8-.1-.2-.1-1.2-.1 1-1.9-2.2-1.7-.8-.1-1.1-.7-1.3-1.1-2.4s.1.5-.5-.2h-.3c-.1 0-.1 0 0 .1l.2.5a15.5 15.5 0 0 1 -2.2-1.2c-.4-.4.3 0 .2-.3l-.8-.3c.2-.3-.8-1.3.4-.7l-.9-.7a4.7 4.7 0 0 0 -1.8-1.4c-.4-.4-1.4-.4-.8-.4l-1.7-.7a11.4 11.4 0 0 0 -2.6-.9 16.6 16.6 0 0 1 -2.7-1.3 6.8 6.8 0 0 1 -2.2-.5l-.2-.4c-.7 0-2.2-.7-2.6-.5s-3.8-.5-5.2-.7v.4a18.8 18.8 0 0 0 -3.1.4l.2.4c-1 .4-2.6.1-4.2.4.1-.2.5-.2.8-.2-2.1-.4-3.7 1.5-5.5 1.6a1.7 1.7 0 0 1 -1 .3h-.1l-1.2.7-.3-.3h-.1c-.5 0-.3.3.1.5a1.2 1.2 0 0 0 -.5.5c-.7-.5-1.1.7-1.9.3s-1.9 1.5-1.8 2.2-.2 0 0-.1-1 .3-1.2.8l-.5-.3-.6 1.2c-.7.1-1.1.2-.7-.6-1 1.5-1 1-1.7 2.4l-.2-.3c-.4.4-.7 1.3-1.1 1.3s-4.1 3.9-6.2 6c1.1.1-1.2.9-.6 1.5s-.6.3-.5-.2c-.7 1.3-1.6 1.7-1.5 3s-.2-.5-.4-.4 0 .5-.2.6-.1-.3-.1-.6c-.7 1.5-.1 1.9.4 2.3a1.3 1.3 0 0 0 -.5 1.6c-.3.2-.7.5-.4-.4s-1.6 2.9-1.1 3.2-.2.7-.2.9a20.9 20.9 0 0 0 -.8 2.3l.2-.3c.4.6-.1 1-.3 2-1 2.1-.1 1-1 3h.5c.8.4-.8 1.9-.6 3.2l.3-.5c.1.7-1.3 1.8-1.5 2.6s-.1-.3-.2-.5c-.5 1.8.6.3.7 1.6s-.8-.3-.9.6 1.1 2.7.6 3.9.5-.5.7.1-.5 2.7.3 3.4 0 .2-.1.2.9 2.3 1.4 2.6c-1.3 1.1 2.1 4.1.8 4.5l1.1 2.1h-.2a2.7 2.7 0 0 0 1.7 1.9c.1.4-.2.2-.2.2.8 2 1 2.2 2.6 3.2l-.3.4c.5.3 1.5 2.8 3.3 4h-.3a14.3 14.3 0 0 1 2.8 2.7c.9.8 1.8 1.5 2.5 1.1l1.5.5c-1.6-1.1.6-.5.1-1.1s1.5 1.4.6 1h-.1c-.7.5 2 1.5 1.8 1.8a36.2 36.2 0 0 0 11 3.5l-.4-.7h1.3c.3.2.4.6-.5.5a1.6 1.6 0 0 0 1.6-.4c1.8.4-.7.7-.2.8h.6a2.7 2.7 0 0 1 1.8-.6c.7.1.4.4.6.4s.1.1.5 0h1.6l-.7-.4c.7-.3 1.5-.2.7-.6a6 6 0 0 0 3.5-.1l3.2-.8a9.8 9.8 0 0 1 2.9-1.4c-.4.1-.7-.3.2-.7.2 1.2 2-.4 3.1-.1-.9 0 2.6-1.6 1.1-1.7.8-.3.3.4 1 .3s4.1-2.4 5.9-4.3c-.1-.1-.5 0-.3-.5l1.6-.4c.3-.4-.3-1 .7-1.3s-.5 0-.3-.3c4.2-3.2 6-8.3 9.2-12.5-.6.5-.4.1-.2-.4s-.3-.1-.5-.2.9-1.1 1.3-1.8.6-2.2.2-2.5v.6c-.3-1-1.7.8-2.5.4.5 1.2-1.8 1.9-1.5 3.8-.3.2-.1-.4-.4-.3s.1 1-.5 1.7c-1.1 2.2-2 3-3.7 5.1h.5a3.5 3.5 0 0 1 -.9.6c.1.9 1.1-1.3 1.2-.4s-2.6 3.4-3.7 3.1.5.1-.1.8h-.4v.4c-.4.4-.9.4-1 .2l.3-.5c-.7.4-1.5 1.6-1.8 1.7l.8-.4a70.2 70.2 0 0 1 -6.1 5h.2c-1.4 1.3-1.3.6-3.1 1.6h.1a3 3 0 0 1 -1.3.9c.4-.4-1 0-.5-.5-1.7 1-.8.6-1.8 1.7h-.4a2.8 2.8 0 0 1 -1.4.9c.8-.5-.7-.3.1-.9-2.2-.1-2.9 1.4-4.1.5-.8 1.1 1.9.3 1.4.5s-.7.8-1.4.8-1.3-.9-2.9-.8h.3c-.6-.2-1.2.4-2 0s-1 0-1.1.6h1.5c-.9.3-1.7.9-3.2.5.1-.2.6-.3.9-.4s-.9.1-1.3-.2 1.9 0 2.9-.4-1.8.3-1.3-.4c-.7.9-1.6-.1-2.8.4v-.4h-.9l.7-.4c-1 .3-1.7-.6-2.6-.6 1.8.4.3.6 1 1-2.4 0-1-1.3-3.4-1.8.3 0 1.1.6.5.6a2.7 2.7 0 0 1 -1.2-.9c-1.5-.5.1.5-.6.5s-.8-.2-1.6-.3l.2-.4c-1.7-1-.9.6-2.3-.6h.9l-.8-.3.4-.3a3.1 3.1 0 0 1 -2-1.1c0 .4-.5.6-1.2.1s.4-.1-.6-.8.8-.1 1 .5h.5a3.6 3.6 0 0 0 -1.5-2.1l.4.3-1.7-.7c-.1-.3.1-.2.3-.2a9.3 9.3 0 0 1 -1-.5c.4-.2.6-.4 1.2-.1l-1.5-.8c0-.1-.3-.9 0-.8s-2.1-1.2-2.6-2.3l-.4-.3a10.4 10.4 0 0 0 -1.9-2.9v-1c-.7-.8-.1 1.3-1.2-.1s.2-.7.2-1.2a3.2 3.2 0 0 1 -1.6-2.4zm-3.1-12.9c.1.3.4.8.2 1s-.3-.5-.2-1zm3.7-20a1 1 0 0 1 -.5.7 1.5 1.5 0 0 1 .5-.7zm51.4-16.5h.2c-.2 0-.4-.2-.7-.4s.1.2.5.4zm-22.8 71.4h-.3c.6-.3.4-.2.3 0z"/><path d="m14.8 38.1h-.2c0 .2.1.2.2 0zm32.8-21.9-.5-.2c0 .1.1.1.5.2zm24.9 7.4-.7-.6a1.7 1.7 0 0 1 .4.7c.1-.1.1-.3.3-.1zm2.1 7.3c.1.1.1.3.2.3h.2c-.3-.5-.6-.7-.4-.3zm-2.6-5.8c-.3.2.2.5.5 1 .5-.3 0-.7-.5-1zm.6 1.1.4.4c.2-.1-.1-.2-.4-.4zm-4.3-6.1c.1.3.4-.2.4 0s-1.7-.8-.4 0zm3.1 6 .2-.4h-.5zm-2.9-3.4.6.6h.3c-.4-.3-.8-.7-.9-.6zm.9.7.5.5zm1.1 1.9-.1-.3-.4-.5zm-10-8.2-.9-.3c-.2.1 0 .3.4.4s.6.1.5-.1zm2.1 2.4a.6.6 0 0 1 -.2-.5l-.3.5zm-2.5-1.2c-.2.1-1.5-.1-.4.3s1.1.2.4-.3zm-14-3.5h.2v-.9zm-11.8 4.7c1.1-.2.1-.6 1.1-.7s-.9.1-.7-.2-.9.6-.4.9zm.4-.9.3-.2zm44.4 43.7.5-.7-.5.4zm-.1-1.6h.6l-.4-.6a1.1 1.1 0 0 1 -.2.6zm-66.2-6.8h-.1c-.2.1-.2.3-.2.6zm.6 9.4v-.2l-.4.4zm3.4 7.1c-.1-.3-.4-.6-.5-.9s0 1.2.5.9zm58.1-24.9c0 .4.3.2.4.2s-.5-.1-.4-.2zm-2.6-5.3h.2l-.7-.6zm-2.2-5c-.3.8.9 1.8 1.2 2.7v.2l.6.2a19.4 19.4 0 0 1 -1.8-3.1zm-.4-3.1c-.1.2-.5-.5.3.6v-.2c0-.1-.1-.2-.3-.4zm.3.4c.3.5 0-.4 0 0zm-1.5-2.2.6.5c0-.2-.3-.8-.1-.6s-.6-.4-.5.1zm-.8-.3.3.2zm.9.8-.6-.6c0 .2-.2.3.3.3s0 .1.3.3zm.2.5c.1.4.3.9-.2.4.8 1.2 1 .8.2-.4zm.6 4v.6l.4.3c-.1-.2-.3-1-.4-.9zm-3.6-9c-.1 0-.1.4-.2.5l.5.4c-.1-.3-.4-.8-.3-.9zm-.2.5-.7-.5c.5.6.6.7.7.5zm1.5 3.4 1.1.9-1.3-1.1zm-3.5-6.4.6.1-1-.2zm-1.6-1.5c.4.1-.1-.6.3-.5a5.1 5.1 0 0 0 -1.5-.7 2.8 2.8 0 0 1 1.2 1.2zm-1.9-1.5.7.3zm3.9 4.4a.8.8 0 0 0 -.2-.7v.5zm-.2-.2-.5-.6zm2.2 3.3c-.4-.3-1.3-.9-.9 0s.2-.4.9 0zm-2-2.4.5.7c.1-.1.1-.3.3-.2zm-.4-.3.4.3-.2-.3zm-2.6-3.5-1.1-.7 1.1 1.1c.1 0 .4 0 0-.4zm1.4 1.4h-.1s0 .1.1 0zm-6.3-4.9v.1l.1-.1z"/><path d="m61 22.6.7.5-.7-.6s-.1 0 0 .1zm-2.1-2.5.4.6c-.1-.2-.3-.6-.4-.6zm3.4 3.2-.6-.2.6.4zm-8.6-3.5c.2-.3 1.2 0 1.7.8s1-1 .7-1.9-.2.2-1-.1 1.4 1.4.6 1.2-.7-.6-1.1-1-1.5-.3-1.6.4l.9.3c0 .1-.4 0-.2.3zm3.8-.2.3.2a7.2 7.2 0 0 1 -.7-1.1 1.6 1.6 0 0 0 -.9-.1l1.5 1.1z"/><path d="m59.1 20.9c-.4.1-1.2-.4-1 .3s.7.2 1.3.5c-1.4-1 .6.1-.3-.8l.8.5-.6-.7h-.2c-.3-.4 0-.2.2-.1l-1.5-1zm4.8 7.2a.1.1 0 0 0 .1-.1c-.1 0-.2 0-.1.1zm-.2-.6a.5.5 0 0 1 .5.3c.1.4-.1.1-.2.2s.7.5.4-.2h-.2a3.4 3.4 0 0 1 -.4-1.5 2.1 2.1 0 0 0 -.1 1.2zm-2.2-3.4-1.2-.8.3.7v-.2c.7.6.7.4.9.3zm-5.4-5.8.3-.2h-1zm-1.7-1 .3-.2-.6-.1zm-38.2 59.7.3.2zm-1.7-2.3h-.1c.1.1.2.1.1 0zm-2.8-50.8c-.7.2-1.4.5-1.1.7h.4a2.9 2.9 0 0 1 .7-.7zm-6.8 29.6v-.2l-.4-.4zm1.6.2-.2.8a1.5 1.5 0 0 0 .2-.8zm21.5 32.7.6-.2c-.6-.3-.4 0-.6.2zm7.8-74h-1.4c.7.1 1.2.4 1.4 0zm-23.4 66.1c.2.2.4.2.4.1s-.3-.2-.4-.1zm20.4-66.1h1.6a1.5 1.5 0 0 0 -1.6 0zm37.9 55h.1c-.1-.1-.1-.1-.1 0zm4.7-16.5c0 .2.1.5.1.7a2.6 2.6 0 0 0 -.1-.7zm-27.3-36.6-.5-.2zm-1.1-.5.6.3h-.1zm5.6 75.8h.1c.3-.3.1-.2-.1 0zm-42.9-55.3h-.1zm-.3 1.3a1.4 1.4 0 0 1 .2-1.3h-1.1z"/><path d="m20.9 81.8-.4-.9c1.1.4 1.6 1 1.2.1-.8.8-2.5-2.3-3.4-1.6l-.3-.6.3.2c-.3-1.2-1.2-.1-2.1-1.3s-.3-.9 0-.7l-.9-.8c-.2-.3 0-.3.2 0l-1.2-1.4h.1l-1.2-.6c-.1-.5.3.1.3-.1l-.7-.7c0-.5.7.1 1 .7.5-1.4-.7-.6-1.1-2.6l.6.7c.2-.9-.4-1.3-.5-2.5-.1.4.2 2.3-.7 1.6a1.7 1.7 0 0 0 -.6-1.1c.3-.2 0-.7-.4-1.3l.5-.2c-.4-.6-.7-.4-1.1-.8a1.3 1.3 0 0 1 .3-1.4c-.4-1.3-.3 1.1-1-.3s-.8-1.8-1.4-3.1.3.1.4-.3l-.6-.5c0-.2.1-.2.2-.2s-.6.2-1-.7.4-2.1-.5-3.1.4 0 .6-.1l-1.4-2.5.2-1.2c-.3.9-.9-.1-1.4-1s-.3.6-.3.7l-.5-1.5c.1-.2.3 0 .5.2v-.3c.2-.5.5-.2.8.1l-.3.6c.4.3.8.7 1.1.5s-.1-.2-.2-.4h.2c.1-.1 0-.2-.2-.5l.6-.3h-.4l.4-2a10.1 10.1 0 0 1 -1.6-4.9c.4.6.7.2 1.2.3s.1 1.7 0 2.9c.1-.6.3-.5.4-.3l-.4-2.1c.4.1.4-.4.6-.9s-.4-1.6-.5-2.4.6.2.3 1.2c.8-1-.7-1.6 0-2.6s-.1.4 0 .5.4-1.9.6-1.6v.3c.4-1.6 1.4-4.8.9-5.3s.7.5.8.7a22.6 22.6 0 0 1 -1.1-3.7c.5.5 2.2.2 2 1.6a4.2 4.2 0 0 0 .7-1.5c-.2.2-1.1.2-1-.2s.6-.5 1.7-1.2-.9-.6-.6-1.1.9.4.9.6v-1.8c0 .4.7.5 1.1.3s.8-1 1-1.4l-.6.4c1.2-1.3-.1-2.3 1.2-3.6 0 .3.5 1.2 1.2.6s-.5-3 .6-4.3h.4l.7-1.1c-.1 1.1-.7 3.6-1 4.9.6-.3.3 0 1-.6s-.1.6-.3.8l1.8-1.3c-.5-.4.8-1.6.5-1.9s-1 1.4-1.4 2.1-.1-2.3 1.3-3.2.4 1 .5 1.2a3.7 3.7 0 0 1 1.3-1.2l-.4.6c.8-.3.7-1.5 2-1.5s1.3.1 1.2-.2-2-2-1.8-2.6a7.2 7.2 0 0 1 2.7-.3c.8.2-.4 1.4.3 1.6l.3-.5c.4 0 0 .5.8.1s1.6-.6.2-.6c.7-.5.8-.3 1.8-.6s.5-1.4 1.3-1.8a.5.5 0 0 0 .3.3c1.8-.3 2.8-.1 4.4-.4s1 .3.7.5a1.6 1.6 0 0 1 .9-.3c1 .5-1.1.1-.4.7s1.3-.5 2-.8-1.6 0-2.3.2 1.1-1.5 3-1.8.6.5.8.4c2.6.3 2.4-1 4.6-.1s-.2.9 0 1.2-1.7-.6-2.5-.7l.9.4a3.9 3.9 0 0 1 -1.5-.1c.7.4 4.4.8 6.1 1.8s1.1 0 .8-.3h-.6c-.5-.5 1.3-.1.6-.5a4.3 4.3 0 0 1 3 .7v.5c.1-.1-.6-.6-1-.5s1.5 1.3 2.3.9l-.7-.6a5 5 0 0 1 3.1.8c-.2-.7-.3-.1-.7-1 .3 1-2.5-1.3-1.9-.1-.4-1-1.1-.8-1.9-1.8s.2.5-.6 0h-.3l.4.4a10.1 10.1 0 0 1 -2.5-.2c-.5-.2.2-.1 0-.4h-.8c0-.4-1.3-1 .1-.9l-1.2-.3a6 6 0 0 0 -2.2-.6c-.6-.1-1.5.2-.9 0h-2.1c-1.9-.3-3.8.5-6-.1a8.9 8.9 0 0 1 -2.3.5l-.2-.3c-.8.2-2.5.2-2.7.6a3.3 3.3 0 0 0 -2.5.3 18.9 18.9 0 0 1 -2.7 1.2v.4a16.4 16.4 0 0 0 -2.6 1.7l.3.3c-.8.7-2.4 1.3-3.7 2.2s.3-.4.6-.5a4.3 4.3 0 0 0 -2.3 1.9 7.6 7.6 0 0 1 -2 2 1.3 1.3 0 0 1 -.8.8c.1 0 .1 0 .1-.1v.2l-.6.3.5-.3-.8 1.2h-.5c-.4.3 0 .4.3.4s-.1.5-.1.7-.6 1.2-1.5 1.2-1.1 2.4-.6 3-.2 0-.1-.2a2.5 2.5 0 0 0 -.8 1.4h-.5v1.4c-.6.5-.9.7-.9-.1-.2 1.8-.5 1.3-.4 3l-.3-.2c-.2.5 0 1.4-.4 1.6s-1.6 5.6-2.5 8.6c1-.5-.5 1.4.2 1.6s-.4.5-.6 0c.1 1.6-.4 2.4.2 3.5s-.3-.4-.5-.2.3.5.1.7-.2-.3-.3-.5c.1 1.6.8 1.7 1.5 1.8a1.5 1.5 0 0 0 .3 1.8c-.2.3-.4.7-.5-.2s0 3.4.6 3.3a1.3 1.3 0 0 0 .2.9c.2 1.3.2 1.4.4 2.6v-.4c.7.3.3.9.7 1.9h.1c.2 2.3.5.9.6 3.2l.4-.3c.9-.1.2 2 1 3.1v-.5c.5.5-.3 2.2 0 3l-.4-.4c.4 1.9.6 0 1.3 1.2s-.8 0-.4.9 2.2 1.9 2.3 3.3c.1-.4.1-.7.6-.3s.9 2.7 2 3 0 .2-.1.2a7.5 7.5 0 0 0 2.4 1.8c-.6 1.6 3.7 2.9 2.8 3.8a13.3 13.3 0 0 0 1.9 1.4h-.2a3.1 3.1 0 0 0 2.3 1.1c.3.3 0 .3-.1.3 1.7 1.4 1.9 1.6 3.8 1.9v.4c.5 0 2.5 2.1 4.7 2.4h-.3c2.3.5 5.3 2.9 6.5 1.5h1.6c-2-.5.4-.6-.4-1 .8.1 2 .6 1 .7h-.1c-.5.7 2.5.4 2.4 1a38.5 38.5 0 0 0 11.8-1.2l-.7-.5 1.3-.4c.4 0 .6.2-.3.6s1.4-.9 1.3-1c1.9-.5-.3.9.2.7l.7-.3h-.2a3.9 3.9 0 0 1 1.5-1.2c.6-.3.5.1.7 0l.4-.2 1.5-.8h-.8c.5-.5 1.3-.8.4-.8a7.7 7.7 0 0 0 3.2-1.9 18.9 18.9 0 0 1 2.5-2.1 12.6 12.6 0 0 1 2-2.7c-.3.2-.8 0-.1-.8.7 1 1.6-1.3 2.8-1.5-.8.4 1.5-2.7.2-2.1.5-.7.4.2 1-.3s2.5-4.1 3.2-6.7c-.1-.1-.5.2-.5-.4a5.7 5.7 0 0 0 1.1-1.1c.1-.5-.7-.7.1-1.5s-.4.3-.4-.1c2.1-5 1.1-10.5 1.9-15.8-.2.8-.3.3-.4-.3s-.4.1-.5.2.2-1.5.2-2.3-.5-2.3-1-2.4l.2.6c-.8-.7-1.1 1.6-2 1.6 1 .8-.7 2.7.6 4.1s-.3-.2-.5 0 .5.8.4 1.8h-.1c.2 2.5-.2 3.6-.7 6.4l.4-.2a1.9 1.9 0 0 1 -.4 1c.5.8.3-1.7.8-1s-.6 4.4-1.7 4.7.5-.2.3.7l-.3.2.2.3c-.2.6-.6.8-.8.8s.1-.4.1-.6a13.7 13.7 0 0 0 -.7 2.4l.4-.8c-.6 2.5-2.1 5.2-3 7.5h.3c-.7 1.8-1 1.2-2.1 2.9a2.7 2.7 0 0 1 -.7 1.4c.2-.5-1 .5-.7-.2-1.1 1.8-.5 1-.9 2.5h-.4c-.1.5-.1.6-.8 1.4.5-.8-.8.1-.4-.8-2 .9-2 2.5-3.4 2.3s1.8-.7 1.4-.2-.3 1-.9 1.3-1.6-.2-3.1.6l.3-.2c-.7.1-.9.9-1.8.9s-1 .3-.9 1l1.5-.8c-.8.5-1.3 1.6-2.9 1.8l.7-.7c-.5 0-.7.5-1.2.4s1.7-.9 2.4-1.7-1.5 1.1-1.3.3c-.3 1.2-1.6.5-2.5 1.4v-.4l-.8.5.4-.7c-.8.7-1.8.1-2.6.4 1.8-.3.5.4 1.3.6-2.2.9-1.5-.7-4-.3.4-.1 1.3.1.8.4a5.4 5.4 0 0 1 -1.5-.4c-1.7.1.3.4-.4.7s-.8.2-1.6.3v-.4c-2-.4-.6.8-2.4.4l.8-.5h-.9l.2-.5c-1 .3-1.3 0-2.2-.2s-.3.7-1.2.5.4-.3-.8-.5a.8.8 0 0 1 1.2.1c0-.2.3-.3.4-.4s-1.6-.3-2-.5l.4.2h-1.8c-.3-.3 0-.3.2-.4a4.7 4.7 0 0 1 -1.2 0c.3-.3.4-.7 1.1-.6l-1.7-.2c0-.2-.6-.7-.4-.7s-2.4-.3-3.4-1.2h-.4c-1.1-.5-1.7-1.5-3.1-1.9l-.3-.9c-1-.6.4 1.3-1.2.3s-.1-.7-.3-1.1-2-.4-2.5-1.6zm-8.7-10.5c.2.2.7.5.6.8s-.5-.4-.6-.8zm-6.6-20c.2.2.1.6-.1.9a3.4 3.4 0 0 1 .1-.9zm37.6-38.1h-.1c-.6-.3-.4-.2.1 0zm1.3.4h-.7c.1-.1.2 0 .7 0zm13 76.8h-.3c.5-.4.4-.2.3 0z"/><path d="m6.3 53.7h-.2c.1.2.2.2.2 0zm18.8-35.2h-.5s.2.1.5 0zm26.4-3.1-.8-.3c.4.2.5.3.6.5s0-.3.2-.2zm5.1 6h.4c-.4-.3-.8-.4-.4 0zm-5-4.4c-.1.3.5.5 1 .7h-.1c.4-.4-.2-.6-.9-.7zm1.1.8.5.2c.2-.1-.2-.1-.5-.2zm-6.5-3.9c.2.1.3-.4.4-.2s-2-.1-.4.2zm5.3 4.3v-.4l-.4.1zm-4-2.1.8.4h.3c-.5-.2-1.1-.5-1.1-.4zm1.1.4.7.2zm1.8 1.3-.2-.2-.6-.3zm-12.7-3.7h-1.1c-.1.1.2.2.6.1s.6 0 .5-.1zm2.9 1.4a1.4 1.4 0 0 1 -.4-.4v.5zm-2.9-.1c-.1.1-1.4.3-.2.3s1.1-.2.2-.3zm-14.6 2.4.3-.2-.4-.7zm-8.6 9.6c.9-.7-.2-.6.6-1.1s-.7.4-.6.1-.6.9 0 1zm60.9 20.6v-.9l-.2.6zm-.9-1.4.4-.3-.5-.4c0 .2.1.5.1.7zm-62.3 22.4h-.1c-.1.2 0 .3.1.6zm5 8.3-.1-.1-.2.6zm6.3 5.2-.8-.6c.6.4.5 1.2.8.6zm47.6-52.4c.3.3.4 0 .5-.1s-.5.2-.5.1zm-4.9-3.3h.2l-.9-.3zm-4.4-3.2c.1.8 1.7 1 2.4 1.7v.2h.7a21.3 21.3 0 0 1 -3.1-1.9zm-1.8-2.6c0 .3-.7-.2.5.4zm.5.3c.5.2-.3-.4 0 0zm-2.5-1.3.8.2c-.1-.2-.7-.5-.4-.5s-.7-.1-.4.3zm.4.4-.8-.2c0 .2 0 .3.4.1s0 .1.4.1zm.4.4c.3.3.7.6 0 .4 1.3.7 1.3.2 0-.4zm2.4 3.2.4.4h.5c-.2.1-.8-.6-.9-.4zm-7.4-6.2c-.1.1.1.4.1.6h.5c-.2-.2-.7-.4-.6-.6zm.1.6h-.9c.7.2.9.1.9 0zm2.9 2.3 1.4.2a8.6 8.6 0 0 0 -1.7-.3zm-6.1-4.1h.5l-.9.2zm-2.2-.5c.5-.1-.3-.5.1-.6a4 4 0 0 0 -1.6.1 2.3 2.3 0 0 1 1.5.5zm-2.3-.4h.8a1.1 1.1 0 0 0 -.8 0zm5.4 2c0-.1 0-.3-.5-.6l.2.5zm-.3-.1-.6-.3zm3.6 1.9c-.5-.1-1.5-.3-.8.4s0-.5.8-.4zm-2.9-1.2.8.4c0-.1-.1-.3.2-.3zm-.5 0h.5l-.3-.1zm-3.9-1.9-1.3-.2 1.5.5c.1-.1.3-.2-.2-.3zm-6-.9h.1zm6.2 1.3a1 1 0 0 0 .9.1l-.9-.2c-.1.1-.1.1 0 .1zm-3-1.2.6.3c-.1-.1-.5-.4-.6-.3zm4.4 1.2h.1c-.1-.1-.1 0-.1 0zm0 0h.1c0 .1 0 .1-.1 0zm-9.2.9c.1-.4 1.1-.6 1.9-.2s.4-1.3-.2-2-.1.3-1 .4 1.9.6 1.1.9-.9-.2-1.5-.5-1.5.5-1.2 1.2l1-.2c0 .1-.4.2-.1.4z"/><path d="m43.3 15.8h.4a4.5 4.5 0 0 1 -1.2-.6c-.6.1-.8.2-.8.3l1.8.3zm2 .3c-.3.3-1.2.3-.8.8s.8-.2 1.5-.2c-1.7-.2.5-.1-.7-.5h1l-.9-.3h.1c0 .1.1.1 0 .1h-.1a.1.1 0 0 1 -.1.1c-.4-.2 0-.1.1-.1h-1.7zm7.7 4.2c-.1-.1-.2-.1 0 0zm-.6-.5a1 1 0 0 1 .7.1c.3.2-.1.2-.1.3s.9 0 .2-.4h-.1c-.6-.3-1.3-1.1-1.1-1.1a1.7 1.7 0 0 0 .4 1.1zm-3.5-1.9-1.4-.2.6.5v-.2c.8.3.7 0 .8-.1zm-7.5-2.6.3-.4-.9.5zm-1.9-.2.1-.3-.5.2zm-5.9 68.2h-.1c.2.1.2 0 .1 0zm-28.7-42.6c-.5.5-1 1.2-.6 1.1h.3a1.3 1.3 0 0 1 .3-1.1zm9.6 28.8v-.2h-.5zm1.5-.5.3.7a1.3 1.3 0 0 0 -.3-.7zm35.2 18.3.4-.3c-.7 0-.4.2-.4.3zm-30.6-68.3-1.3.5c.7-.1 1.3-.1 1.3-.5zm-2.7 1.3h.3l1.1-.8a2 2 0 0 0 -1.4.8zm61.1 30.8v-.2c-.1 0-.1.1 0 .2zm-4.6-16.6.4.5c0-.1-.2-.3-.4-.5zm-40.4-18a.2.2 0 0 0 -.2.2.2.2 0 0 1 .2-.2zm-17.9 8c.1 0 .1 0 0 0zm15.2-9.2h.7c-.1 0-.2-.1-.1-.1zm43.4 63.9c.1-.4.1-.3 0 0zm-65.7-27.3a1 1 0 0 1 -.5-1.2l-1 .6z"/><path d="m42.6 86.5-.8-.6c1.2-.2 1.9.2 1.2-.5-.4 1.1-3.4-.8-3.8.2l-.5-.5h.4c-1-.9-1.1.5-2.5-.2s-.8-.6-.4-.5l-1.2-.2c-.3-.1-.1-.3.2-.1l-1.7-.7h-1.3c-.3-.4.3 0 .3-.2l-1.1-.3c-.2-.4.7-.3 1.3.1-.3-1.5-.9-.1-2.3-1.7l.9.3c-.2-.9-1-1-1.6-1.9s1.2 2 .1 1.7a1.9 1.9 0 0 0 -1.1-.7c.2-.3-.3-.5-.9-.9l.3-.4c-.7-.3-.8-.1-1.3-.1a1.3 1.3 0 0 1 -.5-1.5c-1-.9.3 1.2-1 .2s-1.6-1.1-2.8-1.9.3-.1.2-.4l-.8-.2c-.1-.1 0-.2.1-.2s-.4.3-1.2-.2-.8-2-2.1-2.4.4-.2.5-.4a21.8 21.8 0 0 0 -2.5-1.4l-.4-1.2c.2.9-.9.4-1.8-.2a3.4 3.4 0 0 1 .1.9l-1.2-1.1c0-.2.3-.1.6-.1h-.3c-.1-.6.3-.5.8-.4v.6a1.2 1.2 0 0 0 1.2 0l-.4-.3h.3c0-.1-.2-.1-.5-.2l.3-.6h-.2l-.7-1.8a10.1 10.1 0 0 1 -3.9-3.4c.6.3.7-.2 1.1-.4s1 1.4 1.5 2.4 0-.5.2-.4l-1.4-1.8c.4-.1.1-.5 0-1.1s-1.2-1.1-1.7-1.8.6-.1.9.9c.2-1.3-1.4-1-1.4-2.2s.1.4.3.4-.7-1.9-.4-1.6v.2a24.3 24.3 0 0 0 -.9-3c-.3-1-.7-1.9-1.1-1.9a2.2 2.2 0 0 1 1.1.1 18 18 0 0 1 -2.8-2.6c.6.2 2-.9 2.5.4a3.8 3.8 0 0 0 -.2-1.7c-.1.3-.8.7-.9.4s.2-.8.8-2c-.1.4-1.1 0-1.1-.7s1 0 1.1.2l-1-1.6c.2.4.8.1 1.1-.2s.1-1.3.1-1.8l-.3.7c.3-1.7-1.3-1.9-.8-3.7.1.3 1.1.7 1.4-.1s-2-2.3-1.8-4.1l.4-.2a5.7 5.7 0 0 1 .1-1.3c.4 1.1 1.2 3.6 1.5 4.8.4-.6.3-.1.6-1.1s.2.6.2.9.6-1.4.8-2 0-1.8-.4-1.9a21.3 21.3 0 0 0 -.3 2.5c-.5-.1-1.2-1.9-.3-3.4s.8.7 1 .7a3 3 0 0 1 .5-1.6v.8c.6-.7 0-1.7 1-2.4s1.2-.5 1-.7-2.7-.8-2.8-1.5l.9-.8 1.3-.7c.8-.2.4 1.5 1.1 1.3a.6.6 0 0 1 0-.6c.3-.2.2.4.7-.3s1.1-1.3-.1-.6c.4-.8.7-.6 1.4-1.3s-.3-1.6.3-2.3.3.1.4.1a38.5 38.5 0 0 1 3.8-2.3c.2.1.9-.2.8.2a1.8 1.8 0 0 1 .6-.8c1.1 0-.9.7 0 .8s.9-1.1 1.5-1.5-1.5.6-2 1.2.3-2 1.8-3 .8.2 1 0c2.5-.9 1.7-1.9 4-2.2s.3.9.6 1.2-1.8.2-2.5.4h.9a3 3 0 0 1 -1.4.6l2.7-.6a27 27 0 0 1 3.6-.6c.4-.2 1-.4.6-.5h-.6c-.6-.3 1.2-.7.3-.7a5.7 5.7 0 0 1 3.1-.8l.2.5a1.3 1.3 0 0 0 -1.1 0c.5-.3 1.9.5 2.4-.1l-.9-.4c.9-.2 2-.8 3.1-.6-.5-.5-.2 0-1-.6s-2.9 0-1.8.8c-.8-.7-1.4-.2-2.5-.7s.4.3-.5.3h-.2l.5.3c-.4.4-1.9.5-2.4.9s.2-.3-.1-.4l-.7.4c-.1-.3-1.6-.3-.3-.8l-1.2.2a3.8 3.8 0 0 0 -2.2.5c-.6.1-1.3.8-.9.4a9.1 9.1 0 0 0 -1.7.9h-.1c-.8.3-1.6.9-2.5 1.3a8.2 8.2 0 0 1 -2.8 1.4 19.4 19.4 0 0 1 -1.8 1.4h-.5c-.6.5-2.2 1.2-2.2 1.8s-1.3.6-2.1 1.4a25 25 0 0 1 -1.8 2.4l.3.3a16.3 16.3 0 0 0 -1.5 2.7l.4.2c-.3 1-1.5 2.2-2.1 3.7-.1-.2.1-.5.3-.8a3.9 3.9 0 0 0 -1.2 2.8 6.5 6.5 0 0 1 -.7 2.9 1.2 1.2 0 0 1 -.2 1v.2l-.3.6.3-.5a2.7 2.7 0 0 0 -.1 1.3l-.5.2c-.2.5.2.4.5.2a6.4 6.4 0 0 0 .2.7c-.7.3.1 1.3-.7 1.8s.3 2.6 1 2.8-.1.2-.1-.1a2.2 2.2 0 0 0 .1 1.6l-.5.3.8 1.1c-.2.7-.4 1.1-.9.4a14.6 14.6 0 0 0 1.3 2.8h-.3c.1.6.7 1.3.5 1.7s.3 2 .7 3.7 1.3 3.4 1.7 4.9c.6-1 .3 1.5 1 1.2s0 .7-.5.4c.9 1.3.9 2.3 2 2.8s-.5-.1-.5.2a.7.7 0 0 1 .4.5c0 .2-.3-.1-.5-.3.9 1.4 1.6 1.1 2.2.8s.5 1.2 1.2 1.4.1.8-.6.1 1.8 2.9 2.3 2.6.5.6.6.6l1.7 2v-.4c.7 0 .8.7 1.5 1.3 1.3 1.9.8.5 2.1 2.4v-.4c.8-.5 1.2 1.6 2.5 2.2l-.3-.5c.7.2.9 2.1 1.4 2.6s-.2 0-.5-.1c1.3 1.5.6-.3 1.8.4s-.7.4.1 1 2.8.6 3.6 1.7-.3-.7.4-.5 2 1.9 3.1 1.7v.2c.8.2 2.4.7 3 .5s1.2 1 2.3 1.1 2.1.2 1.9.8l2.3.5h-.1a3.6 3.6 0 0 0 2.6 0c.3.1.1.2 0 .2a5.8 5.8 0 0 0 4.3 0v.4c.5-.3 3.2.8 5.3 0 0 .1 0 .2-.2.2a25.6 25.6 0 0 1 3.9-.3c1.3-.1 2.4-.3 2.6-1.2l1.4-.8c-2 .5.1-.8-.8-.8.7-.3 2.1-.1 1.2.2h-.1c-.1 1 2.4-.6 2.6-.1 3.6-1.7 7.3-3.6 10-6.5h-.8a4.3 4.3 0 0 0 .9-1c.4-.2.7 0 .1.7s.8-1.4.7-1.5.1 1 .5.6l.4-.7h-.2a3.8 3.8 0 0 1 .8-1.8c.5-.5.5-.1.7-.3s.1 0 .2-.4l1-1.4-.8.3c.2-.7.8-1.3-.1-.9.7-.3 1.4-1.7 2-3.1s.9-2.8 1.1-3.1a9.6 9.6 0 0 1 .4-3.3c-.2.3-.7.4-.5-.7 1.1.6.7-1.9 1.6-2.7-.5.7-.1-3.2-.9-1.9.1-.9.4-.1.7-.8s0-4.8-.8-7.4c-.2 0-.3.4-.6-.1s.3-1 .4-1.5-1-.3-.8-1.3-.2.4-.3.1c-.9-5.3-4.6-9.5-6.7-14.5.2.7-.1.4-.5-.1s-.3.3-.4.4l-.9-2c-.7 0-1.6-1.8-2.2-1.6l.5.5c-1-.3-.1 1.9-.9 2.3 1.3.2.9 2.7 2.7 3.3 0 .4-.4-.1-.5.2s.9.4 1.3 1.3h-.1a19.2 19.2 0 0 1 1.5 2.7c.4.9.7 1.9 1.3 3.2l.2-.4a1.7 1.7 0 0 1 .2 1.1c.9.4-.7-1.6.2-1.3s1.7 4 .9 4.9.4-.4.7.5l-.2.3h.4c.1.6-.1 1-.3 1.1s-.2-.4-.2-.5a16.5 16.5 0 0 0 .6 2.4v-.9c.7 2.4.9 5.5 1.4 8l.2-.2c.3 1.9-.2 1.5-.3 3.6a4 4 0 0 1 .1 1.6c-.1-.6-.6.9-.7.2-.1 2 .1 1 .5 2.5l-.4.2a2.3 2.3 0 0 1 0 1.7c0-1-.7.4-.7-.6-1.2 1.8-.5 3.3-1.8 3.8.3 1.3 1.2-1.5 1.1-.9s.3 1-.1 1.6-1.6.5-2.5 2l.2-.4c-.5.5-.4 1.3-1.2 1.7s-.7.8-.3 1.3l.9-1.4c-.4.8-.3 2.1-1.6 2.9s.2-.6.3-.9-.5.7-1 .9 1.2-1.5 1.4-2.6-.8 1.7-1 .9c.3 1.2-1.3 1.1-1.6 2.4l-.2-.3a4.5 4.5 0 0 1 -.5.8v-.9c-.3 1.1-1.6.9-2.2 1.6 1.5-1.1.7.1 1.5-.1-1.6 1.8-1.6.1-3.7 1.5.2-.2 1.2-.5.9 0a3.1 3.1 0 0 1 -1.5.3c-1.4 1 .4.2-.1.8s-.7.6-1.3 1.1l-.2-.4c-1.9.5-.1 1-1.9 1.4a5.6 5.6 0 0 1 .5-.8l-.8.4v-.4a4.2 4.2 0 0 1 -2.2.8c.3.1.1.7-.7 1s.2-.5-1-.2.4-.7 1-.4l.3-.5a6.5 6.5 0 0 0 -2.1.4h.5l-1.6.9c-.3-.1-.1-.3.1-.4l-1.1.4c.1-.4 0-.7.7-.9l-1.6.5c-.2-.1-.9-.3-.7-.5s-2.3.8-3.6.5l-.5.2c-1.2-.1-2.1-.7-3.6-.3l-.7-.8c-1.1 0 1 1-.9.9s-.4-.6-.8-.9a3.2 3.2 0 0 1 -3-.2 1.6 1.6 0 0 1 1.3.2zm-12.7-5.1c.2.1.8.1.9.4s-.6-.1-.9-.4zm-15.9-14c.2.1.3.4.4.7a1.6 1.6 0 0 1 -.4-.7zm13.6-51h-.1c-.6.1-.4 0 .1 0zm1.3-.1c.2-.1.1-.2.1-.2a1.3 1.3 0 0 1 -.8.2zm50.4 61.3-.2.2c.2-.6.2-.4.2-.2z"/><path d="m15.8 69a.4.4 0 0 1 -.1.3c.2 0 .2 0 .1-.3zm-2-39.7-.4.2c.1.1.2.1.4-.2zm22.3-14.6h-.9l.8.2s-.2-.2.1-.2zm7.2 3.1c.1-.1.2 0 .4 0v-.2c-.6-.1-.9 0-.4.2zm-6.4-1.7c0 .3.6.2 1.2.2h-.1c.2-.5-.5-.4-1.1-.2zm1.3.1h.6c0-.2-.3 0-.6 0zm-7.6-.5c.3 0 .1-.5.3-.4s-1.8.9-.3.4zm6.8 1.5-.3-.4-.3.3zm-4.7-.1h1a.2.2 0 0 1 .2-.2c-.6.1-1.2.1-1.2.2zm3.4.3-.3-.1-.6-.1zm-13.1 2.3-.9.5c0 .2.3.1.6-.1s.5-.4.3-.4zm3.3 0-.5-.2v.5zm-2.7 1.1c0 .2-1.1 1 0 .4s.9-.6 0-.4zm-11.8 8.8c0-.1 0-.1.1-.2l-.7-.5zm-2.7 12.6c.3-1-.5-.3-.1-1.3s-.4.8-.5.5 0 1.1.6.8zm63.7-10.2-.4-.8.1.6zm-1.5-.8.3-.5h-.7zm-42.5 48.1h-.2c0 .2.2.3.5.5zm8.5 5-.2-.1.1.6zm8 1.6h-1c.7 0 1 .7 1 0zm153.7 12.9h-1.4a1.6 1.6 0 0 0 -.7-1.2 2.5 2.5 0 0 0 -1.6-.4 2.8 2.8 0 0 0 -1.5.3 1.2 1.2 0 0 0 -.6 1c0 .4.3.7.8.9l1.8.6a10.2 10.2 0 0 1 2.4.9 1.9 1.9 0 0 1 1 1.8c0 1.9-1.2 2.8-3.8 2.8s-3.6-1-3.8-3.1h1.3a2.2 2.2 0 0 0 .8 1.5 2.7 2.7 0 0 0 1.7.4q2.4 0 2.4-1.5a1.4 1.4 0 0 0 -.8-1.2l-2-.5-2.2-.8a1.9 1.9 0 0 1 -1-1.8 2 2 0 0 1 1-1.8 3.9 3.9 0 0 1 2.5-.7c2.2 0 3.4.9 3.7 2.8zm6.4-2.5v-2.4l1.4-.5v2.9h2.2v1.1h-2.2v5.8a.8.8 0 0 0 .2.7l.6.2h1.2v1.2h-1.4a2 2 0 0 1 -1.6-.6 2.4 2.4 0 0 1 -.4-1.5v-5.8m12.3 8.1a3.4 3.4 0 0 1 -3.7-3.7v-5.5h1.4v5.5a2.7 2.7 0 0 0 .6 1.9 2.1 2.1 0 0 0 1.7.6 2.2 2.2 0 0 0 1.6-.5 2.5 2.5 0 0 0 .9-1.9v-5.6h1.4v5.4a3.7 3.7 0 0 1 -3.9 3.8zm16.7-1.5a3.7 3.7 0 0 1 -3.4 1.5 4 4 0 0 1 -3.1-1.4 6 6 0 0 1 -1-3.4 5.3 5.3 0 0 1 1-3.2 3.7 3.7 0 0 1 3.1-1.5 3.2 3.2 0 0 1 2.9 1.9v-5.3h1.4v9.3a4.4 4.4 0 0 1 -.9 2.1zm-5.4-5.8a4.6 4.6 0 0 0 -.6 2.5 4.8 4.8 0 0 0 .6 2.6 2.5 2.5 0 0 0 2.2 1.1 2.5 2.5 0 0 0 2.1-1.1 4.3 4.3 0 0 0 .7-2.4v-.2a4.2 4.2 0 0 0 -.8-2.6 2.4 2.4 0 0 0 -2-.9 2.6 2.6 0 0 0 -2.2 1zm12.4-1.9v9h-1.4v-9zm11.1 1.2a4.9 4.9 0 0 1 1.2 3.4 5.2 5.2 0 0 1 -1.1 3.3 4 4 0 0 1 -3.3 1.4 3.9 3.9 0 0 1 -3.2-1.4 4.8 4.8 0 0 1 -1.2-3.3 4.9 4.9 0 0 1 1.2-3.4 4.2 4.2 0 0 1 3.2-1.4 4 4 0 0 1 3.2 1.4zm-5.4.9a4.8 4.8 0 0 0 0 5 2.7 2.7 0 0 0 2.2 1.1 2.8 2.8 0 0 0 2.3-1.1 4.8 4.8 0 0 0 0-5 2.8 2.8 0 0 0 -2.3-1.1 2.7 2.7 0 0 0 -2.2 1.1z"/><circle cx="212.3" cy="44" r="4.6"/><path d="m79.9 60c-.2.3.2.3.3.3s-.4-.3-.3-.3zm.2-5.8.1.1-.2-.9zm.4-5.3c-.6.5 0 1.9-.2 2.8l-.2.2.5.5a21.6 21.6 0 0 1 -.1-3.5zm1.1-3c-.2.2-.2-.6 0 .7h.1a1.8 1.8 0 0 0 -.1-.7z"/><path d="m81.7 46.5c0 .6.1-.4 0 0zm-.4-2.6.3.7c.1-.2.1-.9.2-.6s-.3-.6-.5-.1zm-.5-.7v.4c.1-.1.2-.2 0-.4zm.4 1.2-.3-.8c-.1.1-.3.1.1.4s0 0 .2.4zm0 .5c-.1.4-.2.9-.4.2.1 1.4.5 1.2.4-.2zm-1.3 3.7-.2.6v.4c.1-.2.3-1 .2-1zm.8-9.5c-.1 0-.2.4-.4.5l.3.5c0-.3-.1-.9.1-1zm-.4.5-.4-.8c.1.7.3.8.4.8zm-.2 3.6.6 1.3-.7-1.6zm-.3-7.2.5.4-.7-.7zm-.7-2c.3.3.2-.6.5-.3a4.3 4.3 0 0 0 -1.1-1.2 2.6 2.6 0 0 1 .6 1.5zm-1.2-2.1.6.6c-.1-.3-.3-.4-.6-.6zm1.7 5.5c.1-.1.2-.3.1-.7l-.2.4c0 .1.1.2.1.3z"/><path d="m79.5 37.1a4.1 4.1 0 0 1 -.2-.7zm.6 3.9c-.4-.4-.8-1.4-.9-.4s.4-.2.9.4zm-.8-3v.9c.1-.1.2-.3.4 0zm-.2-.4.2.4-.1-.3zm-.8-4.2a3 3 0 0 1 -.7-1.1 8.8 8.8 0 0 0 .5 1.5c.1 0 .4.1.2-.4zm.6 1.8h-.1zm-3.6-7v.1h.1zm2.8 5.7a1.6 1.6 0 0 0 .4.7 5.9 5.9 0 0 0 -.4-.8c-.1 0-.1 0 0 .1zm-.9-3.1c0 .2.1.4.1.7s0-.7-.1-.7zm1.7 4.2-.4-.4.3.5a.1.1 0 0 1 .1-.1zm-6.3-6.6c.4-.2 1.2.4 1.3 1.4s1.3-.5 1.4-1.5-.2.2-.8-.5.6 1.9-.1 1.4-.3-.8-.5-1.4-1.3-.8-1.7-.2l.8.6c-.1.1-.4-.1-.4.2zm3.5 1.4.3.3a4.2 4.2 0 0 1 -.3-1.3c-.4-.5-.6-.5-.7-.5l.9 1.6z"/><path d="m77.1 31.5c-.4-.1-.9-.8-1.1-.1s.6.5 1 1c-.8-1.5.4.3.1-.9a5.6 5.6 0 0 0 .5.8l-.3-.8h-.2c-.1-.5.1-.1.2 0l-.9-1.4c.1.3.4.7.7 1.4zm1.1 8.5h.1c-.1-.2-.1-.2-.1 0zm.1-.7a.7.7 0 0 1 .3.5c0 .4-.2.1-.3.1s.5.7.5 0h-.1a3.2 3.2 0 0 1 .2-1.5 2.9 2.9 0 0 0 -.6.9zm-.5-3.9-.6-1.2c0 .2-.1.5-.1.7h.2c.2.7.3.4.5.5zm-2.4-7.4h.4l-.9-.5zm-1.1-1.5.3-.2-.4-.2zm-61.6 36 .2.4c-.1-.2-.2-.3-.2-.4zm20.7-47.4c-.7 0-1.5-.2-1.3.1l.4.3a1.8 1.8 0 0 1 .9-.4zm-19.7 22.2h.2c-.1-.2-.1-.4-.2-.6zm1.3 1-.5.5zm4.2 37.3h.5c-.3-.5-.3-.1-.5 0zm40.2-60.7-1.1-.7c.5.4.9.9 1.1.7zm-50.8 47.3q.2.4.3.3t-.3-.3zm48.2-48.5.3.2 1.2.3a2 2 0 0 0 -1.5-.5zm21 51.1-.3.7a1.5 1.5 0 0 0 .3-.7zm-8.4-44c.3.2.1 0 0 0zm.4.5-.3-.4c0 .1.1.2.3.4zm0-.2.3.3zm-.8-.7.5.5h-.1zm-29 67.5h.1c.3-.1.2-.1-.1 0zm-13.1-64.6v-.1zm-.8 1c.1-.8.4-.9.8-1l-1-.6c.1.5.1 1 .2 1.6z"/><path d="m14.8 68.7c0-.4-.1-.7-.1-1s1.1 1.5 1.2.6-1.3-3.1-2.4-2.8v-.6l.2.3c.2-1.2-1-.6-1.3-2.1s.1-.9.3-.6a4.7 4.7 0 0 1 -.5-1c-.1-.4.2-.3.2 0l-.4-1.7h.1a3.9 3.9 0 0 1 -.8-1c.1-.5.2.2.3.1a10.4 10.4 0 0 1 -.4-1c.3-.4.6.4.7 1.1 1-1-.4-.8.2-2.8l.2.9c.6-.6.3-1.3.7-2.3s-.9 2-1.3 1a1.7 1.7 0 0 0 -.1-1.2c.4 0 .3-.6.3-1.3h.5c-.1-.8-.4-.7-.6-1.2s.5-.9.9-1.1-.8.9-.7-.7a8.8 8.8 0 0 0 .2-3.3c.3-.7.3.2.5 0l-.3-.8h.2c0-.6-.5-.2-.4-1.1s1.3-1.6 1-2.9.3.2.5.2a26.1 26.1 0 0 0 0-2.8l.8-.9c-.7.6-.8-.5-.8-1.5l-.7.4c.2-.5.2-1 .4-1.5s.2.1.3.4v-.3c.5-.3.6 0 .7.5l-.5.4c.2.4.4.9.7 1v-.5c.1.1.1.2.2.1s0-.2 0-.4h.7l-.2-.2 1.2-1.4a11.1 11.1 0 0 1 1-5c.1.7.5.5.9.9s-.7 1.5-1.4 2.3.5-.2.5 0l.7-1.9c.3.3.5-.2.9-.5s.5-1.5.8-2.3.3.5-.4 1.2c1.2-.5.1-1.7 1.2-2.2s-.2.2-.2.4 1.3-1.5 1.3-1.1l-.2.2c1.1-1.1 3.4-3.4 3.2-4.1a3 3 0 0 1 .4 1c.2-1.2.5-2.5.8-3.7.2.7 1.8 1.3.9 2.3a2.9 2.9 0 0 0 1.4-.9c-.3 0-1.1-.4-.8-.7a18.3 18.3 0 0 0 2.1-.2c-.4.1-.6-1 0-1.3s.5.8.4 1l.8-1.6c-.3.4.3.8.8.8s1.1-.5 1.4-.8h-.6c1.6-.6.9-2 2.6-2.6-.1.3 0 1.3.8 1.1s.9-2.9 2.4-3.6l.4.2 1.1-.6c-.6.9-2.3 2.8-3 3.8s.2.3 1.1 0-.4.5-.6.6l2.1-.4c-.2-.6 1.5-1 1.3-1.4l-2.2 1.1c-.2-.5 1-1.9 2.6-2.2s-.1 1.1 0 1.3 1.4-.6 1.5-.5l-.6.4c.9.1 1.3-1 2.4-.6s1.2.7 1.2.4a3.7 3.7 0 0 1 -.5-3.2c.1.1 2.1.6 2.5.9s-.9 1.2-.4 1.7.3-.4.5-.5-.2.5.6.5 1.7.2.5-.5c.8-.1.8.2 1.8.3s1-1.2 1.9-1.2.1.4.2.5a23.4 23.4 0 0 1 4 1.3c.1.2.8.6.4.7s.5-.2 1 0-1-.3-.6.5 1.3.1 2.1.2-1.5-.7-2.2-.7 1.6-.9 3.4-.5.3.6.6.6c2.2 1.4 2.6-.1 4.2 1.7s-.5.7-.6 1.1-1.2-1.2-1.9-1.5l.7.6a3.5 3.5 0 0 1 -1.4-.6c.5.6 3.7 2.3 4.9 3.9.3.1.9.4.8.1l-.5-.4c-.2-.7 1.2.4.7-.2a4.5 4.5 0 0 1 2.5 1.7l-.2.6c.1-.2-.3-.8-.7-1s.7 1.8 1.6 1.8l-.3-.9c.8.5 2 1 2.4 2 .2-.8-.1-.2-.1-1.2-.1 1-1.9-2.2-1.7-.8-.1-1.1-.7-1.3-1.1-2.4s.1.5-.5-.2h-.3c-.1 0-.1 0 0 .1l.2.5a15.5 15.5 0 0 1 -2.2-1.2c-.4-.4.3 0 .2-.3l-.8-.3c.2-.3-.8-1.3.4-.7l-.9-.7a4.7 4.7 0 0 0 -1.8-1.4c-.4-.4-1.4-.4-.8-.4l-1.7-.7a11.4 11.4 0 0 0 -2.6-.9 16.6 16.6 0 0 1 -2.7-1.3 6.8 6.8 0 0 1 -2.2-.5l-.2-.4c-.7 0-2.2-.7-2.6-.5s-3.8-.5-5.2-.7v.4a18.8 18.8 0 0 0 -3.1.4l.2.4c-1 .4-2.6.1-4.2.4.1-.2.5-.2.8-.2-2.1-.4-3.7 1.5-5.5 1.6a1.7 1.7 0 0 1 -1 .3h-.1l-1.2.7-.3-.3h-.1c-.5 0-.3.3.1.5a1.2 1.2 0 0 0 -.5.5c-.7-.5-1.1.7-1.9.3s-1.9 1.5-1.8 2.2-.2 0 0-.1-1 .3-1.2.8l-.5-.3-.6 1.2c-.7.1-1.1.2-.7-.6-1 1.5-1 1-1.7 2.4l-.2-.3c-.4.4-.7 1.3-1.1 1.3s-4.1 3.9-6.2 6c1.1.1-1.2.9-.6 1.5s-.6.3-.5-.2c-.7 1.3-1.6 1.7-1.5 3s-.2-.5-.4-.4 0 .5-.2.6-.1-.3-.1-.6c-.7 1.5-.1 1.9.4 2.3a1.3 1.3 0 0 0 -.5 1.6c-.3.2-.7.5-.4-.4s-1.6 2.9-1.1 3.2-.2.7-.2.9a20.9 20.9 0 0 0 -.8 2.3l.2-.3c.4.6-.1 1-.3 2-1 2.1-.1 1-1 3h.5c.8.4-.8 1.9-.6 3.2l.3-.5c.1.7-1.3 1.8-1.5 2.6s-.1-.3-.2-.5c-.5 1.8.6.3.7 1.6s-.8-.3-.9.6 1.1 2.7.6 3.9.5-.5.7.1-.5 2.7.3 3.4 0 .2-.1.2.9 2.3 1.4 2.6c-1.3 1.1 2.1 4.1.8 4.5l1.1 2.1h-.2a2.7 2.7 0 0 0 1.7 1.9c.1.4-.2.2-.2.2.8 2 1 2.2 2.6 3.2l-.3.4c.5.3 1.5 2.8 3.3 4h-.3a14.3 14.3 0 0 1 2.8 2.7c.9.8 1.8 1.5 2.5 1.1l1.5.5c-1.6-1.1.6-.5.1-1.1s1.5 1.4.6 1h-.1c-.7.5 2 1.5 1.8 1.8a36.2 36.2 0 0 0 11 3.5l-.4-.7h1.3c.3.2.4.6-.5.5a1.6 1.6 0 0 0 1.6-.4c1.8.4-.7.7-.2.8h.6a2.7 2.7 0 0 1 1.8-.6c.7.1.4.4.6.4s.1.1.5 0h1.6l-.7-.4c.7-.3 1.5-.2.7-.6a6 6 0 0 0 3.5-.1l3.2-.8a9.8 9.8 0 0 1 2.9-1.4c-.4.1-.7-.3.2-.7.2 1.2 2-.4 3.1-.1-.9 0 2.6-1.6 1.1-1.7.8-.3.3.4 1 .3s4.1-2.4 5.9-4.3c-.1-.1-.5 0-.3-.5l1.6-.4c.3-.4-.3-1 .7-1.3s-.5 0-.3-.3c4.2-3.2 6-8.3 9.2-12.5-.6.5-.4.1-.2-.4s-.3-.1-.5-.2.9-1.1 1.3-1.8.6-2.2.2-2.5v.6c-.3-1-1.7.8-2.5.4.5 1.2-1.8 1.9-1.5 3.8-.3.2-.1-.4-.4-.3s.1 1-.5 1.7c-1.1 2.2-2 3-3.7 5.1h.5a3.5 3.5 0 0 1 -.9.6c.1.9 1.1-1.3 1.2-.4s-2.6 3.4-3.7 3.1.5.1-.1.8h-.4v.4c-.4.4-.9.4-1 .2l.3-.5c-.7.4-1.5 1.6-1.8 1.7l.8-.4a70.2 70.2 0 0 1 -6.1 5h.2c-1.4 1.3-1.3.6-3.1 1.6h.1a3 3 0 0 1 -1.3.9c.4-.4-1 0-.5-.5-1.7 1-.8.6-1.8 1.7h-.4a2.8 2.8 0 0 1 -1.4.9c.8-.5-.7-.3.1-.9-2.2-.1-2.9 1.4-4.1.5-.8 1.1 1.9.3 1.4.5s-.7.8-1.4.8-1.3-.9-2.9-.8h.3c-.6-.2-1.2.4-2 0s-1 0-1.1.6h1.5c-.9.3-1.7.9-3.2.5.1-.2.6-.3.9-.4s-.9.1-1.3-.2 1.9 0 2.9-.4-1.8.3-1.3-.4c-.7.9-1.6-.1-2.8.4v-.4h-.9l.7-.4c-1 .3-1.7-.6-2.6-.6 1.8.4.3.6 1 1-2.4 0-1-1.3-3.4-1.8.3 0 1.1.6.5.6a2.7 2.7 0 0 1 -1.2-.9c-1.5-.5.1.5-.6.5s-.8-.2-1.6-.3l.2-.4c-1.7-1-.9.6-2.3-.6h.9l-.8-.3.4-.3a3.1 3.1 0 0 1 -2-1.1c0 .4-.5.6-1.2.1s.4-.1-.6-.8.8-.1 1 .5h.5a3.6 3.6 0 0 0 -1.5-2.1l.4.3-1.7-.7c-.1-.3.1-.2.3-.2a9.3 9.3 0 0 1 -1-.5c.4-.2.6-.4 1.2-.1l-1.5-.8c0-.1-.3-.9 0-.8s-2.1-1.2-2.6-2.3l-.4-.3a10.4 10.4 0 0 0 -1.9-2.9v-1c-.7-.8-.1 1.3-1.2-.1s.2-.7.2-1.2a3.2 3.2 0 0 1 -1.6-2.4zm-3.1-12.9c.1.3.4.8.2 1s-.3-.5-.2-1zm3.7-20a1 1 0 0 1 -.5.7 1.5 1.5 0 0 1 .5-.7zm51.4-16.5h.2c-.2 0-.4-.2-.7-.4s.1.2.5.4zm-22.8 71.4h-.3c.6-.3.4-.2.3 0z"/><path d="m14.8 38.1h-.2c0 .2.1.2.2 0zm32.8-21.9-.5-.2c0 .1.1.1.5.2zm24.9 7.4-.7-.6a1.7 1.7 0 0 1 .4.7c.1-.1.1-.3.3-.1zm2.1 7.3c.1.1.1.3.2.3h.2c-.3-.5-.6-.7-.4-.3zm-2.6-5.8c-.3.2.2.5.5 1 .5-.3 0-.7-.5-1zm.6 1.1.4.4c.2-.1-.1-.2-.4-.4zm-4.3-6.1c.1.3.4-.2.4 0s-1.7-.8-.4 0zm3.1 6 .2-.4h-.5zm-2.9-3.4.6.6h.3c-.4-.3-.8-.7-.9-.6zm.9.7.5.5zm1.1 1.9-.1-.3-.4-.5zm-10-8.2-.9-.3c-.2.1 0 .3.4.4s.6.1.5-.1zm2.1 2.4a.6.6 0 0 1 -.2-.5l-.3.5zm-2.5-1.2c-.2.1-1.5-.1-.4.3s1.1.2.4-.3zm-14-3.5h.2v-.9zm-11.8 4.7c1.1-.2.1-.6 1.1-.7s-.9.1-.7-.2-.9.6-.4.9zm.4-.9.3-.2zm44.4 43.7.5-.7-.5.4zm-.1-1.6h.6l-.4-.6a1.1 1.1 0 0 1 -.2.6zm-66.2-6.8h-.1c-.2.1-.2.3-.2.6zm.6 9.4v-.2l-.4.4zm3.4 7.1c-.1-.3-.4-.6-.5-.9s0 1.2.5.9zm58.1-24.9c0 .4.3.2.4.2s-.5-.1-.4-.2zm-2.6-5.3h.2l-.7-.6zm-2.2-5c-.3.8.9 1.8 1.2 2.7v.2l.6.2a19.4 19.4 0 0 1 -1.8-3.1zm-.4-3.1c-.1.2-.5-.5.3.6v-.2c0-.1-.1-.2-.3-.4zm.3.4c.3.5 0-.4 0 0zm-1.5-2.2.6.5c0-.2-.3-.8-.1-.6s-.6-.4-.5.1zm-.8-.3.3.2zm.9.8-.6-.6c0 .2-.2.3.3.3s0 .1.3.3zm.2.5c.1.4.3.9-.2.4.8 1.2 1 .8.2-.4zm.6 4v.6l.4.3c-.1-.2-.3-1-.4-.9zm-3.6-9c-.1 0-.1.4-.2.5l.5.4c-.1-.3-.4-.8-.3-.9zm-.2.5-.7-.5c.5.6.6.7.7.5zm1.5 3.4 1.1.9-1.3-1.1zm-3.5-6.4.6.1-1-.2zm-1.6-1.5c.4.1-.1-.6.3-.5a5.1 5.1 0 0 0 -1.5-.7 2.8 2.8 0 0 1 1.2 1.2zm-1.9-1.5.7.3zm3.9 4.4a.8.8 0 0 0 -.2-.7v.5zm-.2-.2-.5-.6zm2.2 3.3c-.4-.3-1.3-.9-.9 0s.2-.4.9 0zm-2-2.4.5.7c.1-.1.1-.3.3-.2zm-.4-.3.4.3-.2-.3zm-2.6-3.5-1.1-.7 1.1 1.1c.1 0 .4 0 0-.4zm1.4 1.4h-.1s0 .1.1 0zm-6.3-4.9v.1l.1-.1z"/><path d="m61 22.6.7.5-.7-.6s-.1 0 0 .1zm-2.1-2.5.4.6c-.1-.2-.3-.6-.4-.6zm3.4 3.2-.6-.2.6.4zm-8.6-3.5c.2-.3 1.2 0 1.7.8s1-1 .7-1.9-.2.2-1-.1 1.4 1.4.6 1.2-.7-.6-1.1-1-1.5-.3-1.6.4l.9.3c0 .1-.4 0-.2.3zm3.8-.2.3.2a7.2 7.2 0 0 1 -.7-1.1 1.6 1.6 0 0 0 -.9-.1l1.5 1.1z"/><path d="m59.1 20.9c-.4.1-1.2-.4-1 .3s.7.2 1.3.5c-1.4-1 .6.1-.3-.8l.8.5-.6-.7h-.2c-.3-.4 0-.2.2-.1l-1.5-1zm4.8 7.2a.1.1 0 0 0 .1-.1c-.1 0-.2 0-.1.1zm-.2-.6a.5.5 0 0 1 .5.3c.1.4-.1.1-.2.2s.7.5.4-.2h-.2a3.4 3.4 0 0 1 -.4-1.5 2.1 2.1 0 0 0 -.1 1.2zm-2.2-3.4-1.2-.8.3.7v-.2c.7.6.7.4.9.3zm-5.4-5.8.3-.2h-1zm-1.7-1 .3-.2-.6-.1zm-38.2 59.7.3.2zm-1.7-2.3h-.1c.1.1.2.1.1 0zm-2.8-50.8c-.7.2-1.4.5-1.1.7h.4a2.9 2.9 0 0 1 .7-.7zm-6.8 29.6v-.2l-.4-.4zm1.6.2-.2.8a1.5 1.5 0 0 0 .2-.8zm21.5 32.7.6-.2c-.6-.3-.4 0-.6.2zm7.8-74h-1.4c.7.1 1.2.4 1.4 0zm-23.4 66.1c.2.2.4.2.4.1s-.3-.2-.4-.1zm20.4-66.1h1.6a1.5 1.5 0 0 0 -1.6 0zm37.9 55h.1c-.1-.1-.1-.1-.1 0zm4.7-16.5c0 .2.1.5.1.7a2.6 2.6 0 0 0 -.1-.7zm-27.3-36.6-.5-.2zm-1.1-.5.6.3h-.1zm5.6 75.8h.1c.3-.3.1-.2-.1 0zm-42.9-55.3h-.1zm-.3 1.3a1.4 1.4 0 0 1 .2-1.3h-1.1z"/><path d="m20.9 81.8-.4-.9c1.1.4 1.6 1 1.2.1-.8.8-2.5-2.3-3.4-1.6l-.3-.6.3.2c-.3-1.2-1.2-.1-2.1-1.3s-.3-.9 0-.7l-.9-.8c-.2-.3 0-.3.2 0l-1.2-1.4h.1l-1.2-.6c-.1-.5.3.1.3-.1l-.7-.7c0-.5.7.1 1 .7.5-1.4-.7-.6-1.1-2.6l.6.7c.2-.9-.4-1.3-.5-2.5-.1.4.2 2.3-.7 1.6a1.7 1.7 0 0 0 -.6-1.1c.3-.2 0-.7-.4-1.3l.5-.2c-.4-.6-.7-.4-1.1-.8a1.3 1.3 0 0 1 .3-1.4c-.4-1.3-.3 1.1-1-.3s-.8-1.8-1.4-3.1.3.1.4-.3l-.6-.5c0-.2.1-.2.2-.2s-.6.2-1-.7.4-2.1-.5-3.1.4 0 .6-.1l-1.4-2.5.2-1.2c-.3.9-.9-.1-1.4-1s-.3.6-.3.7l-.5-1.5c.1-.2.3 0 .5.2v-.3c.2-.5.5-.2.8.1l-.3.6c.4.3.8.7 1.1.5s-.1-.2-.2-.4h.2c.1-.1 0-.2-.2-.5l.6-.3h-.4l.4-2a10.1 10.1 0 0 1 -1.6-4.9c.4.6.7.2 1.2.3s.1 1.7 0 2.9c.1-.6.3-.5.4-.3l-.4-2.1c.4.1.4-.4.6-.9s-.4-1.6-.5-2.4.6.2.3 1.2c.8-1-.7-1.6 0-2.6s-.1.4 0 .5.4-1.9.6-1.6v.3c.4-1.6 1.4-4.8.9-5.3s.7.5.8.7a22.6 22.6 0 0 1 -1.1-3.7c.5.5 2.2.2 2 1.6a4.2 4.2 0 0 0 .7-1.5c-.2.2-1.1.2-1-.2s.6-.5 1.7-1.2-.9-.6-.6-1.1.9.4.9.6v-1.8c0 .4.7.5 1.1.3s.8-1 1-1.4l-.6.4c1.2-1.3-.1-2.3 1.2-3.6 0 .3.5 1.2 1.2.6s-.5-3 .6-4.3h.4l.7-1.1c-.1 1.1-.7 3.6-1 4.9.6-.3.3 0 1-.6s-.1.6-.3.8l1.8-1.3c-.5-.4.8-1.6.5-1.9s-1 1.4-1.4 2.1-.1-2.3 1.3-3.2.4 1 .5 1.2a3.7 3.7 0 0 1 1.3-1.2l-.4.6c.8-.3.7-1.5 2-1.5s1.3.1 1.2-.2-2-2-1.8-2.6a7.2 7.2 0 0 1 2.7-.3c.8.2-.4 1.4.3 1.6l.3-.5c.4 0 0 .5.8.1s1.6-.6.2-.6c.7-.5.8-.3 1.8-.6s.5-1.4 1.3-1.8a.5.5 0 0 0 .3.3c1.8-.3 2.8-.1 4.4-.4s1 .3.7.5a1.6 1.6 0 0 1 .9-.3c1 .5-1.1.1-.4.7s1.3-.5 2-.8-1.6 0-2.3.2 1.1-1.5 3-1.8.6.5.8.4c2.6.3 2.4-1 4.6-.1s-.2.9 0 1.2-1.7-.6-2.5-.7l.9.4a3.9 3.9 0 0 1 -1.5-.1c.7.4 4.4.8 6.1 1.8s1.1 0 .8-.3h-.6c-.5-.5 1.3-.1.6-.5a4.3 4.3 0 0 1 3 .7v.5c.1-.1-.6-.6-1-.5s1.5 1.3 2.3.9l-.7-.6a5 5 0 0 1 3.1.8c-.2-.7-.3-.1-.7-1 .3 1-2.5-1.3-1.9-.1-.4-1-1.1-.8-1.9-1.8s.2.5-.6 0h-.3l.4.4a10.1 10.1 0 0 1 -2.5-.2c-.5-.2.2-.1 0-.4h-.8c0-.4-1.3-1 .1-.9l-1.2-.3a6 6 0 0 0 -2.2-.6c-.6-.1-1.5.2-.9 0h-2.1c-1.9-.3-3.8.5-6-.1a8.9 8.9 0 0 1 -2.3.5l-.2-.3c-.8.2-2.5.2-2.7.6a3.3 3.3 0 0 0 -2.5.3 18.9 18.9 0 0 1 -2.7 1.2v.4a16.4 16.4 0 0 0 -2.6 1.7l.3.3c-.8.7-2.4 1.3-3.7 2.2s.3-.4.6-.5a4.3 4.3 0 0 0 -2.3 1.9 7.6 7.6 0 0 1 -2 2 1.3 1.3 0 0 1 -.8.8c.1 0 .1 0 .1-.1v.2l-.6.3.5-.3-.8 1.2h-.5c-.4.3 0 .4.3.4s-.1.5-.1.7-.6 1.2-1.5 1.2-1.1 2.4-.6 3-.2 0-.1-.2a2.5 2.5 0 0 0 -.8 1.4h-.5v1.4c-.6.5-.9.7-.9-.1-.2 1.8-.5 1.3-.4 3l-.3-.2c-.2.5 0 1.4-.4 1.6s-1.6 5.6-2.5 8.6c1-.5-.5 1.4.2 1.6s-.4.5-.6 0c.1 1.6-.4 2.4.2 3.5s-.3-.4-.5-.2.3.5.1.7-.2-.3-.3-.5c.1 1.6.8 1.7 1.5 1.8a1.5 1.5 0 0 0 .3 1.8c-.2.3-.4.7-.5-.2s0 3.4.6 3.3a1.3 1.3 0 0 0 .2.9c.2 1.3.2 1.4.4 2.6v-.4c.7.3.3.9.7 1.9h.1c.2 2.3.5.9.6 3.2l.4-.3c.9-.1.2 2 1 3.1v-.5c.5.5-.3 2.2 0 3l-.4-.4c.4 1.9.6 0 1.3 1.2s-.8 0-.4.9 2.2 1.9 2.3 3.3c.1-.4.1-.7.6-.3s.9 2.7 2 3 0 .2-.1.2a7.5 7.5 0 0 0 2.4 1.8c-.6 1.6 3.7 2.9 2.8 3.8a13.3 13.3 0 0 0 1.9 1.4h-.2a3.1 3.1 0 0 0 2.3 1.1c.3.3 0 .3-.1.3 1.7 1.4 1.9 1.6 3.8 1.9v.4c.5 0 2.5 2.1 4.7 2.4h-.3c2.3.5 5.3 2.9 6.5 1.5h1.6c-2-.5.4-.6-.4-1 .8.1 2 .6 1 .7h-.1c-.5.7 2.5.4 2.4 1a38.5 38.5 0 0 0 11.8-1.2l-.7-.5 1.3-.4c.4 0 .6.2-.3.6s1.4-.9 1.3-1c1.9-.5-.3.9.2.7l.7-.3h-.2a3.9 3.9 0 0 1 1.5-1.2c.6-.3.5.1.7 0l.4-.2 1.5-.8h-.8c.5-.5 1.3-.8.4-.8a7.7 7.7 0 0 0 3.2-1.9 18.9 18.9 0 0 1 2.5-2.1 12.6 12.6 0 0 1 2-2.7c-.3.2-.8 0-.1-.8.7 1 1.6-1.3 2.8-1.5-.8.4 1.5-2.7.2-2.1.5-.7.4.2 1-.3s2.5-4.1 3.2-6.7c-.1-.1-.5.2-.5-.4a5.7 5.7 0 0 0 1.1-1.1c.1-.5-.7-.7.1-1.5s-.4.3-.4-.1c2.1-5 1.1-10.5 1.9-15.8-.2.8-.3.3-.4-.3s-.4.1-.5.2.2-1.5.2-2.3-.5-2.3-1-2.4l.2.6c-.8-.7-1.1 1.6-2 1.6 1 .8-.7 2.7.6 4.1s-.3-.2-.5 0 .5.8.4 1.8h-.1c.2 2.5-.2 3.6-.7 6.4l.4-.2a1.9 1.9 0 0 1 -.4 1c.5.8.3-1.7.8-1s-.6 4.4-1.7 4.7.5-.2.3.7l-.3.2.2.3c-.2.6-.6.8-.8.8s.1-.4.1-.6a13.7 13.7 0 0 0 -.7 2.4l.4-.8c-.6 2.5-2.1 5.2-3 7.5h.3c-.7 1.8-1 1.2-2.1 2.9a2.7 2.7 0 0 1 -.7 1.4c.2-.5-1 .5-.7-.2-1.1 1.8-.5 1-.9 2.5h-.4c-.1.5-.1.6-.8 1.4.5-.8-.8.1-.4-.8-2 .9-2 2.5-3.4 2.3s1.8-.7 1.4-.2-.3 1-.9 1.3-1.6-.2-3.1.6l.3-.2c-.7.1-.9.9-1.8.9s-1 .3-.9 1l1.5-.8c-.8.5-1.3 1.6-2.9 1.8l.7-.7c-.5 0-.7.5-1.2.4s1.7-.9 2.4-1.7-1.5 1.1-1.3.3c-.3 1.2-1.6.5-2.5 1.4v-.4l-.8.5.4-.7c-.8.7-1.8.1-2.6.4 1.8-.3.5.4 1.3.6-2.2.9-1.5-.7-4-.3.4-.1 1.3.1.8.4a5.4 5.4 0 0 1 -1.5-.4c-1.7.1.3.4-.4.7s-.8.2-1.6.3v-.4c-2-.4-.6.8-2.4.4l.8-.5h-.9l.2-.5c-1 .3-1.3 0-2.2-.2s-.3.7-1.2.5.4-.3-.8-.5a.8.8 0 0 1 1.2.1c0-.2.3-.3.4-.4s-1.6-.3-2-.5l.4.2h-1.8c-.3-.3 0-.3.2-.4a4.7 4.7 0 0 1 -1.2 0c.3-.3.4-.7 1.1-.6l-1.7-.2c0-.2-.6-.7-.4-.7s-2.4-.3-3.4-1.2h-.4c-1.1-.5-1.7-1.5-3.1-1.9l-.3-.9c-1-.6.4 1.3-1.2.3s-.1-.7-.3-1.1-2-.4-2.5-1.6zm-8.7-10.5c.2.2.7.5.6.8s-.5-.4-.6-.8zm-6.6-20c.2.2.1.6-.1.9a3.4 3.4 0 0 1 .1-.9zm37.6-38.1h-.1c-.6-.3-.4-.2.1 0zm1.3.4h-.7c.1-.1.2 0 .7 0zm13 76.8h-.3c.5-.4.4-.2.3 0z"/><path d="m6.3 53.7h-.2c.1.2.2.2.2 0zm18.8-35.2h-.5s.2.1.5 0zm26.4-3.1-.8-.3c.4.2.5.3.6.5s0-.3.2-.2zm5.1 6h.4c-.4-.3-.8-.4-.4 0zm-5-4.4c-.1.3.5.5 1 .7h-.1c.4-.4-.2-.6-.9-.7zm1.1.8.5.2c.2-.1-.2-.1-.5-.2zm-6.5-3.9c.2.1.3-.4.4-.2s-2-.1-.4.2zm5.3 4.3v-.4l-.4.1zm-4-2.1.8.4h.3c-.5-.2-1.1-.5-1.1-.4zm1.1.4.7.2zm1.8 1.3-.2-.2-.6-.3zm-12.7-3.7h-1.1c-.1.1.2.2.6.1s.6 0 .5-.1zm2.9 1.4a1.4 1.4 0 0 1 -.4-.4v.5zm-2.9-.1c-.1.1-1.4.3-.2.3s1.1-.2.2-.3zm-14.6 2.4.3-.2-.4-.7zm-8.6 9.6c.9-.7-.2-.6.6-1.1s-.7.4-.6.1-.6.9 0 1zm60.9 20.6v-.9l-.2.6zm-.9-1.4.4-.3-.5-.4c0 .2.1.5.1.7zm-62.3 22.4h-.1c-.1.2 0 .3.1.6zm5 8.3-.1-.1-.2.6zm6.3 5.2-.8-.6c.6.4.5 1.2.8.6zm47.6-52.4c.3.3.4 0 .5-.1s-.5.2-.5.1zm-4.9-3.3h.2l-.9-.3zm-4.4-3.2c.1.8 1.7 1 2.4 1.7v.2h.7a21.3 21.3 0 0 1 -3.1-1.9zm-1.8-2.6c0 .3-.7-.2.5.4zm.5.3c.5.2-.3-.4 0 0zm-2.5-1.3.8.2c-.1-.2-.7-.5-.4-.5s-.7-.1-.4.3zm.4.4-.8-.2c0 .2 0 .3.4.1s0 .1.4.1zm.4.4c.3.3.7.6 0 .4 1.3.7 1.3.2 0-.4zm2.4 3.2.4.4h.5c-.2.1-.8-.6-.9-.4zm-7.4-6.2c-.1.1.1.4.1.6h.5c-.2-.2-.7-.4-.6-.6zm.1.6h-.9c.7.2.9.1.9 0zm2.9 2.3 1.4.2a8.6 8.6 0 0 0 -1.7-.3zm-6.1-4.1h.5l-.9.2zm-2.2-.5c.5-.1-.3-.5.1-.6a4 4 0 0 0 -1.6.1 2.3 2.3 0 0 1 1.5.5zm-2.3-.4h.8a1.1 1.1 0 0 0 -.8 0zm5.4 2c0-.1 0-.3-.5-.6l.2.5zm-.3-.1-.6-.3zm3.6 1.9c-.5-.1-1.5-.3-.8.4s0-.5.8-.4zm-2.9-1.2.8.4c0-.1-.1-.3.2-.3zm-.5 0h.5l-.3-.1zm-3.9-1.9-1.3-.2 1.5.5c.1-.1.3-.2-.2-.3zm-6-.9h.1zm6.2 1.3a1 1 0 0 0 .9.1l-.9-.2c-.1.1-.1.1 0 .1zm-3-1.2.6.3c-.1-.1-.5-.4-.6-.3zm4.4 1.2h.1c-.1-.1-.1 0-.1 0zm0 0h.1c0 .1 0 .1-.1 0zm-9.2.9c.1-.4 1.1-.6 1.9-.2s.4-1.3-.2-2-.1.3-1 .4 1.9.6 1.1.9-.9-.2-1.5-.5-1.5.5-1.2 1.2l1-.2c0 .1-.4.2-.1.4z"/><path d="m43.3 15.8h.4a4.5 4.5 0 0 1 -1.2-.6c-.6.1-.8.2-.8.3l1.8.3zm2 .3c-.3.3-1.2.3-.8.8s.8-.2 1.5-.2c-1.7-.2.5-.1-.7-.5h1l-.9-.3h.1c0 .1.1.1 0 .1h-.1a.1.1 0 0 1 -.1.1c-.4-.2 0-.1.1-.1h-1.7zm7.7 4.2c-.1-.1-.2-.1 0 0zm-.6-.5a1 1 0 0 1 .7.1c.3.2-.1.2-.1.3s.9 0 .2-.4h-.1c-.6-.3-1.3-1.1-1.1-1.1a1.7 1.7 0 0 0 .4 1.1zm-3.5-1.9-1.4-.2.6.5v-.2c.8.3.7 0 .8-.1zm-7.5-2.6.3-.4-.9.5zm-1.9-.2.1-.3-.5.2zm-5.9 68.2h-.1c.2.1.2 0 .1 0zm-28.7-42.6c-.5.5-1 1.2-.6 1.1h.3a1.3 1.3 0 0 1 .3-1.1zm9.6 28.8v-.2h-.5zm1.5-.5.3.7a1.3 1.3 0 0 0 -.3-.7zm35.2 18.3.4-.3c-.7 0-.4.2-.4.3zm-30.6-68.3-1.3.5c.7-.1 1.3-.1 1.3-.5zm-2.7 1.3h.3l1.1-.8a2 2 0 0 0 -1.4.8zm61.1 30.8v-.2c-.1 0-.1.1 0 .2zm-4.6-16.6.4.5c0-.1-.2-.3-.4-.5zm-40.4-18a.2.2 0 0 0 -.2.2.2.2 0 0 1 .2-.2zm-17.9 8c.1 0 .1 0 0 0zm15.2-9.2h.7c-.1 0-.2-.1-.1-.1zm43.4 63.9c.1-.4.1-.3 0 0zm-65.7-27.3a1 1 0 0 1 -.5-1.2l-1 .6z"/><path d="m42.6 86.5-.8-.6c1.2-.2 1.9.2 1.2-.5-.4 1.1-3.4-.8-3.8.2l-.5-.5h.4c-1-.9-1.1.5-2.5-.2s-.8-.6-.4-.5l-1.2-.2c-.3-.1-.1-.3.2-.1l-1.7-.7h-1.3c-.3-.4.3 0 .3-.2l-1.1-.3c-.2-.4.7-.3 1.3.1-.3-1.5-.9-.1-2.3-1.7l.9.3c-.2-.9-1-1-1.6-1.9s1.2 2 .1 1.7a1.9 1.9 0 0 0 -1.1-.7c.2-.3-.3-.5-.9-.9l.3-.4c-.7-.3-.8-.1-1.3-.1a1.3 1.3 0 0 1 -.5-1.5c-1-.9.3 1.2-1 .2s-1.6-1.1-2.8-1.9.3-.1.2-.4l-.8-.2c-.1-.1 0-.2.1-.2s-.4.3-1.2-.2-.8-2-2.1-2.4.4-.2.5-.4a21.8 21.8 0 0 0 -2.5-1.4l-.4-1.2c.2.9-.9.4-1.8-.2a3.4 3.4 0 0 1 .1.9l-1.2-1.1c0-.2.3-.1.6-.1h-.3c-.1-.6.3-.5.8-.4v.6a1.2 1.2 0 0 0 1.2 0l-.4-.3h.3c0-.1-.2-.1-.5-.2l.3-.6h-.2l-.7-1.8a10.1 10.1 0 0 1 -3.9-3.4c.6.3.7-.2 1.1-.4s1 1.4 1.5 2.4 0-.5.2-.4l-1.4-1.8c.4-.1.1-.5 0-1.1s-1.2-1.1-1.7-1.8.6-.1.9.9c.2-1.3-1.4-1-1.4-2.2s.1.4.3.4-.7-1.9-.4-1.6v.2a24.3 24.3 0 0 0 -.9-3c-.3-1-.7-1.9-1.1-1.9a2.2 2.2 0 0 1 1.1.1 18 18 0 0 1 -2.8-2.6c.6.2 2-.9 2.5.4a3.8 3.8 0 0 0 -.2-1.7c-.1.3-.8.7-.9.4s.2-.8.8-2c-.1.4-1.1 0-1.1-.7s1 0 1.1.2l-1-1.6c.2.4.8.1 1.1-.2s.1-1.3.1-1.8l-.3.7c.3-1.7-1.3-1.9-.8-3.7.1.3 1.1.7 1.4-.1s-2-2.3-1.8-4.1l.4-.2a5.7 5.7 0 0 1 .1-1.3c.4 1.1 1.2 3.6 1.5 4.8.4-.6.3-.1.6-1.1s.2.6.2.9.6-1.4.8-2 0-1.8-.4-1.9a21.3 21.3 0 0 0 -.3 2.5c-.5-.1-1.2-1.9-.3-3.4s.8.7 1 .7a3 3 0 0 1 .5-1.6v.8c.6-.7 0-1.7 1-2.4s1.2-.5 1-.7-2.7-.8-2.8-1.5l.9-.8 1.3-.7c.8-.2.4 1.5 1.1 1.3a.6.6 0 0 1 0-.6c.3-.2.2.4.7-.3s1.1-1.3-.1-.6c.4-.8.7-.6 1.4-1.3s-.3-1.6.3-2.3.3.1.4.1a38.5 38.5 0 0 1 3.8-2.3c.2.1.9-.2.8.2a1.8 1.8 0 0 1 .6-.8c1.1 0-.9.7 0 .8s.9-1.1 1.5-1.5-1.5.6-2 1.2.3-2 1.8-3 .8.2 1 0c2.5-.9 1.7-1.9 4-2.2s.3.9.6 1.2-1.8.2-2.5.4h.9a3 3 0 0 1 -1.4.6l2.7-.6a27 27 0 0 1 3.6-.6c.4-.2 1-.4.6-.5h-.6c-.6-.3 1.2-.7.3-.7a5.7 5.7 0 0 1 3.1-.8l.2.5a1.3 1.3 0 0 0 -1.1 0c.5-.3 1.9.5 2.4-.1l-.9-.4c.9-.2 2-.8 3.1-.6-.5-.5-.2 0-1-.6s-2.9 0-1.8.8c-.8-.7-1.4-.2-2.5-.7s.4.3-.5.3h-.2l.5.3c-.4.4-1.9.5-2.4.9s.2-.3-.1-.4l-.7.4c-.1-.3-1.6-.3-.3-.8l-1.2.2a3.8 3.8 0 0 0 -2.2.5c-.6.1-1.3.8-.9.4a9.1 9.1 0 0 0 -1.7.9h-.1c-.8.3-1.6.9-2.5 1.3a8.2 8.2 0 0 1 -2.8 1.4 19.4 19.4 0 0 1 -1.8 1.4h-.5c-.6.5-2.2 1.2-2.2 1.8s-1.3.6-2.1 1.4a25 25 0 0 1 -1.8 2.4l.3.3a16.3 16.3 0 0 0 -1.5 2.7l.4.2c-.3 1-1.5 2.2-2.1 3.7-.1-.2.1-.5.3-.8a3.9 3.9 0 0 0 -1.2 2.8 6.5 6.5 0 0 1 -.7 2.9 1.2 1.2 0 0 1 -.2 1v.2l-.3.6.3-.5a2.7 2.7 0 0 0 -.1 1.3l-.5.2c-.2.5.2.4.5.2a6.4 6.4 0 0 0 .2.7c-.7.3.1 1.3-.7 1.8s.3 2.6 1 2.8-.1.2-.1-.1a2.2 2.2 0 0 0 .1 1.6l-.5.3.8 1.1c-.2.7-.4 1.1-.9.4a14.6 14.6 0 0 0 1.3 2.8h-.3c.1.6.7 1.3.5 1.7s.3 2 .7 3.7 1.3 3.4 1.7 4.9c.6-1 .3 1.5 1 1.2s0 .7-.5.4c.9 1.3.9 2.3 2 2.8s-.5-.1-.5.2a.7.7 0 0 1 .4.5c0 .2-.3-.1-.5-.3.9 1.4 1.6 1.1 2.2.8s.5 1.2 1.2 1.4.1.8-.6.1 1.8 2.9 2.3 2.6.5.6.6.6l1.7 2v-.4c.7 0 .8.7 1.5 1.3 1.3 1.9.8.5 2.1 2.4v-.4c.8-.5 1.2 1.6 2.5 2.2l-.3-.5c.7.2.9 2.1 1.4 2.6s-.2 0-.5-.1c1.3 1.5.6-.3 1.8.4s-.7.4.1 1 2.8.6 3.6 1.7-.3-.7.4-.5 2 1.9 3.1 1.7v.2c.8.2 2.4.7 3 .5s1.2 1 2.3 1.1 2.1.2 1.9.8l2.3.5h-.1a3.6 3.6 0 0 0 2.6 0c.3.1.1.2 0 .2a5.8 5.8 0 0 0 4.3 0v.4c.5-.3 3.2.8 5.3 0 0 .1 0 .2-.2.2a25.6 25.6 0 0 1 3.9-.3c1.3-.1 2.4-.3 2.6-1.2l1.4-.8c-2 .5.1-.8-.8-.8.7-.3 2.1-.1 1.2.2h-.1c-.1 1 2.4-.6 2.6-.1 3.6-1.7 7.3-3.6 10-6.5h-.8a4.3 4.3 0 0 0 .9-1c.4-.2.7 0 .1.7s.8-1.4.7-1.5.1 1 .5.6l.4-.7h-.2a3.8 3.8 0 0 1 .8-1.8c.5-.5.5-.1.7-.3s.1 0 .2-.4l1-1.4-.8.3c.2-.7.8-1.3-.1-.9.7-.3 1.4-1.7 2-3.1s.9-2.8 1.1-3.1a9.6 9.6 0 0 1 .4-3.3c-.2.3-.7.4-.5-.7 1.1.6.7-1.9 1.6-2.7-.5.7-.1-3.2-.9-1.9.1-.9.4-.1.7-.8s0-4.8-.8-7.4c-.2 0-.3.4-.6-.1s.3-1 .4-1.5-1-.3-.8-1.3-.2.4-.3.1c-.9-5.3-4.6-9.5-6.7-14.5.2.7-.1.4-.5-.1s-.3.3-.4.4l-.9-2c-.7 0-1.6-1.8-2.2-1.6l.5.5c-1-.3-.1 1.9-.9 2.3 1.3.2.9 2.7 2.7 3.3 0 .4-.4-.1-.5.2s.9.4 1.3 1.3h-.1a19.2 19.2 0 0 1 1.5 2.7c.4.9.7 1.9 1.3 3.2l.2-.4a1.7 1.7 0 0 1 .2 1.1c.9.4-.7-1.6.2-1.3s1.7 4 .9 4.9.4-.4.7.5l-.2.3h.4c.1.6-.1 1-.3 1.1s-.2-.4-.2-.5a16.5 16.5 0 0 0 .6 2.4v-.9c.7 2.4.9 5.5 1.4 8l.2-.2c.3 1.9-.2 1.5-.3 3.6a4 4 0 0 1 .1 1.6c-.1-.6-.6.9-.7.2-.1 2 .1 1 .5 2.5l-.4.2a2.3 2.3 0 0 1 0 1.7c0-1-.7.4-.7-.6-1.2 1.8-.5 3.3-1.8 3.8.3 1.3 1.2-1.5 1.1-.9s.3 1-.1 1.6-1.6.5-2.5 2l.2-.4c-.5.5-.4 1.3-1.2 1.7s-.7.8-.3 1.3l.9-1.4c-.4.8-.3 2.1-1.6 2.9s.2-.6.3-.9-.5.7-1 .9 1.2-1.5 1.4-2.6-.8 1.7-1 .9c.3 1.2-1.3 1.1-1.6 2.4l-.2-.3a4.5 4.5 0 0 1 -.5.8v-.9c-.3 1.1-1.6.9-2.2 1.6 1.5-1.1.7.1 1.5-.1-1.6 1.8-1.6.1-3.7 1.5.2-.2 1.2-.5.9 0a3.1 3.1 0 0 1 -1.5.3c-1.4 1 .4.2-.1.8s-.7.6-1.3 1.1l-.2-.4c-1.9.5-.1 1-1.9 1.4a5.6 5.6 0 0 1 .5-.8l-.8.4v-.4a4.2 4.2 0 0 1 -2.2.8c.3.1.1.7-.7 1s.2-.5-1-.2.4-.7 1-.4l.3-.5a6.5 6.5 0 0 0 -2.1.4h.5l-1.6.9c-.3-.1-.1-.3.1-.4l-1.1.4c.1-.4 0-.7.7-.9l-1.6.5c-.2-.1-.9-.3-.7-.5s-2.3.8-3.6.5l-.5.2c-1.2-.1-2.1-.7-3.6-.3l-.7-.8c-1.1 0 1 1-.9.9s-.4-.6-.8-.9a3.2 3.2 0 0 1 -3-.2 1.6 1.6 0 0 1 1.3.2zm-12.7-5.1c.2.1.8.1.9.4s-.6-.1-.9-.4zm-15.9-14c.2.1.3.4.4.7a1.6 1.6 0 0 1 -.4-.7zm13.6-51h-.1c-.6.1-.4 0 .1 0zm1.3-.1c.2-.1.1-.2.1-.2a1.3 1.3 0 0 1 -.8.2zm50.4 61.3-.2.2c.2-.6.2-.4.2-.2z"/><path d="m15.8 69a.4.4 0 0 1 -.1.3c.2 0 .2 0 .1-.3zm-2-39.7-.4.2c.1.1.2.1.4-.2zm22.3-14.6h-.9l.8.2s-.2-.2.1-.2zm7.2 3.1c.1-.1.2 0 .4 0v-.2c-.6-.1-.9 0-.4.2zm-6.4-1.7c0 .3.6.2 1.2.2h-.1c.2-.5-.5-.4-1.1-.2zm1.3.1h.6c0-.2-.3 0-.6 0zm-7.6-.5c.3 0 .1-.5.3-.4s-1.8.9-.3.4zm6.8 1.5-.3-.4-.3.3zm-4.7-.1h1a.2.2 0 0 1 .2-.2c-.6.1-1.2.1-1.2.2zm3.4.3-.3-.1-.6-.1zm-13.1 2.3-.9.5c0 .2.3.1.6-.1s.5-.4.3-.4zm3.3 0-.5-.2v.5zm-2.7 1.1c0 .2-1.1 1 0 .4s.9-.6 0-.4zm-11.8 8.8c0-.1 0-.1.1-.2l-.7-.5zm-2.7 12.6c.3-1-.5-.3-.1-1.3s-.4.8-.5.5 0 1.1.6.8zm63.7-10.2-.4-.8.1.6zm-1.5-.8.3-.5h-.7zm-42.5 48.1h-.2c0 .2.2.3.5.5zm8.5 5-.2-.1.1.6zm8 1.6h-1c.7 0 1 .7 1 0zm153.7 12.9h-1.4a1.6 1.6 0 0 0 -.7-1.2 2.5 2.5 0 0 0 -1.6-.4 2.8 2.8 0 0 0 -1.5.3 1.2 1.2 0 0 0 -.6 1c0 .4.3.7.8.9l1.8.6a10.2 10.2 0 0 1 2.4.9 1.9 1.9 0 0 1 1 1.8c0 1.9-1.2 2.8-3.8 2.8s-3.6-1-3.8-3.1h1.3a2.2 2.2 0 0 0 .8 1.5 2.7 2.7 0 0 0 1.7.4q2.4 0 2.4-1.5a1.4 1.4 0 0 0 -.8-1.2l-2-.5-2.2-.8a1.9 1.9 0 0 1 -1-1.8 2 2 0 0 1 1-1.8 3.9 3.9 0 0 1 2.5-.7c2.2 0 3.4.9 3.7 2.8zm6.4-2.5v-2.4l1.4-.5v2.9h2.2v1.1h-2.2v5.8a.8.8 0 0 0 .2.7l.6.2h1.2v1.2h-1.4a2 2 0 0 1 -1.6-.6 2.4 2.4 0 0 1 -.4-1.5v-5.8m12.3 8.1a3.4 3.4 0 0 1 -3.7-3.7v-5.5h1.4v5.5a2.7 2.7 0 0 0 .6 1.9 2.1 2.1 0 0 0 1.7.6 2.2 2.2 0 0 0 1.6-.5 2.5 2.5 0 0 0 .9-1.9v-5.6h1.4v5.4a3.7 3.7 0 0 1 -3.9 3.8zm16.7-1.5a3.7 3.7 0 0 1 -3.4 1.5 4 4 0 0 1 -3.1-1.4 6 6 0 0 1 -1-3.4 5.3 5.3 0 0 1 1-3.2 3.7 3.7 0 0 1 3.1-1.5 3.2 3.2 0 0 1 2.9 1.9v-5.3h1.4v9.3a4.4 4.4 0 0 1 -.9 2.1zm-5.4-5.8a4.6 4.6 0 0 0 -.6 2.5 4.8 4.8 0 0 0 .6 2.6 2.5 2.5 0 0 0 2.2 1.1 2.5 2.5 0 0 0 2.1-1.1 4.3 4.3 0 0 0 .7-2.4v-.2a4.2 4.2 0 0 0 -.8-2.6 2.4 2.4 0 0 0 -2-.9 2.6 2.6 0 0 0 -2.2 1zm12.4-1.9v9h-1.4v-9zm11.1 1.2a4.9 4.9 0 0 1 1.2 3.4 5.2 5.2 0 0 1 -1.1 3.3 4 4 0 0 1 -3.3 1.4 3.9 3.9 0 0 1 -3.2-1.4 4.8 4.8 0 0 1 -1.2-3.3 4.9 4.9 0 0 1 1.2-3.4 4.2 4.2 0 0 1 3.2-1.4 4 4 0 0 1 3.2 1.4zm-5.4.9a4.8 4.8 0 0 0 0 5 2.7 2.7 0 0 0 2.2 1.1 2.8 2.8 0 0 0 2.3-1.1 4.8 4.8 0 0 0 0-5 2.8 2.8 0 0 0 -2.3-1.1 2.7 2.7 0 0 0 -2.2 1.1z"/></svg>